<ttFont>
          <CharString index="0">
            rmoveto
            173 92 92 152 26 hvcurveto
            5 27 2 29 31 vvcurveto
            -3 129 -100 91 -140 -1 rrcurveto
            -172 -91 -92 -152 -26 hvcurveto
            -5 -27 -2 -29 -31 vvcurveto
            3 -129 100 -91 138 1 rrcurveto
            11 -12 callgsubr
            -74 -1 -44 42 -1 68 rrcurveto
            20 1 18 3 20 vhcurveto
            13 108 49 52 88 -1 74 1 44 -42 1 -68 rrcurveto
            -20 -1 -18 -3 -20 vhcurveto
            -13 -108 -49 -52 -88 1 rrcurveto
            return
          </CharString>
          <CharString index="1">
            rmoveto
            -99 callgsubr
            6 28 2 26 24 vvcurveto
            135 -72 62 -146 -209 -75 -178 -173 -30 callgsubr
            158 vhcurveto
            -77 334 rmoveto
            72 21 39 37 70 hhcurveto
            46 29 -22 -53 -10 -1 -12 -2 -12 hvcurveto
            return
          </CharString>
          <CharString index="2">
            rmoveto
            -26 callgsubr
            -56 -313 rlineto
            -6 -32 -5 -27 -26 vvcurveto
            -102 71 -38 80 vhcurveto
            return
          </CharString>
          <CharString index="3">
            rmoveto
            184 107 90 177 31 hvcurveto
            76 431 -64 callgsubr
            -75 -424 rlineto
            -100 -18 -64 -51 -94 hhcurveto
            -86 -40 38 74 12 3 21 1 6 hvcurveto
            75 424 -64 callgsubr
            -74 -423 rlineto
            -4 -22 -2 -22 -19 vvcurveto
            -141 98 -71 172 vhcurveto
            return
          </CharString>
          <CharString index="4">
            47 34 -37 50 hhcurveto
            68 36 57 65 11 hvcurveto
            -70 hlineto
            -28 -9 -13 -9 -19 -47 -34 37 -51 hhcurveto
            -67 -35 -57 -65 -11 hvcurveto
            return
          </CharString>
          <CharString index="5">
            rmoveto
            -105 callgsubr
            endchar
          </CharString>
          <CharString index="6">
            545 -70 callgsubr
            -400 -37 callsubr
            350 -70 callgsubr
            -350 hlineto
            26 151 rlineto
            394 -70 callgsubr
            -539 hlineto
            return
          </CharString>
          <CharString index="7">
            rmoveto
            3 15 1 14 14 vvcurveto
            138 -135 65 -164 -112 -92 -33 -59 -67 vhcurveto
            -93 -81 -45 -129 -138 vvcurveto
            -189 107 -81 182 101 67 33 55 67 vhcurveto
            -76 100 vlineto
            66 373 rlineto
            -353 hlineto
            -21 -119 rlineto
            207 hlineto
            -88 -16 -96 -55 -110 hhcurveto
            -102 -50 49 100 20 3 23 9 55 hvcurveto
            138 23 84 79 144 hhcurveto
            77 66 -38 -67 -6 0 -6 -1 -6 hvcurveto
            return
          </CharString>
          <CharString index="8">
            rmoveto
            -25 -137 rlineto
            59 hlineto
            -20 -33 -33 -22 -48 -12 rrcurveto
            50 -54 -82 24 -104 hhcurveto
            -219 -140 -136 -216 -33 hvcurveto
            -4 -29 -2 -30 -30 -65 callsubr
            221 144 139 217 29 vhcurveto
            -4 callsubr
            55 -11 47 -20 38 vhcurveto
            91 31 50 62 20 112 10 54 rcurveline
            -301 -500 rmoveto
            -136 -23 -83 -81 -135 hhcurveto
            -108 -54 57 100 18 2 20 9 52 hvcurveto
            136 23 83 81 133 hhcurveto
            110 54 -58 -99 -19 -2 -20 -9 -51 hvcurveto
            return
          </CharString>
          <CharString index="9">
            4 callgsubr
            113 90 176 29 hvcurveto
            77 432 -64 callgsubr
            -31 -174 rlineto
            -119 -21 -59 -62 -87 hhcurveto
            -58 -33 28 54 9 1 10 2 10 hvcurveto
            43 244 -64 callgsubr
            -43 -241 rlineto
            -4 -24 -2 -22 -21 vvcurveto
            -108 57 -62 122 74 61 23 55 45 vhcurveto
            7 hlineto
            -10 -54 rlineto
            -80 -14 -57 -41 -83 hhcurveto
            -72 -29 17 40 hvcurveto
            -148 -9 hlineto
            -114 91 -57 156 vhcurveto
            endchar
          </CharString>
          <CharString index="10">
            rmoveto
            -101 callsubr
            return
          </CharString>
          <CharString index="11">
            4 callgsubr
            81 81 164 28 hvcurveto
            82 463 -68 callsubr
            -44 -244 rlineto
            -94 -17 -56 -49 -69 hhcurveto
            -42 -25 18 47 15 3 15 3 18 hvcurveto
            49 274 -68 callsubr
            -51 -283 rlineto
            -6 -32 -5 -27 -26 vvcurveto
            -102 71 -38 80 70 64 37 43 36 vhcurveto
            6 hlineto
            -7 -39 rlineto
            -86 -16 -45 -43 -74 hhcurveto
            -51 -28 12 33 -5 hvcurveto
            -133 -10 hlineto
            -98 2 86 -49 124 hhcurveto
            endchar
          </CharString>
          <CharString index="12">
            rmoveto
            127 75 94 115 60 hvcurveto
            259 499 rlineto
            -144 hlineto
            -122 -248 rlineto
            -23 -46 -34 -90 0 vvcurveto
            -5 hlineto
            0 -11 96 -9 41 vhcurveto
            -55 247 -13 callsubr
            113 -526 rlineto
            -52 -28 -32 -21 -46 hhcurveto
            -65 hlineto
            -16 -96 rlineto
            0 33 -13 58 vhcurveto
            return
          </CharString>
          <CharString index="13">
            rmoveto
            -58 -25 34 63 75 25 144 109 55 29 -34 -67 -73 -32 -142 -103 hvcurveto
            return
          </CharString>
          <CharString index="14">
            rmoveto
            122 hlineto
            128 135 rlineto
            -33 callsubr
            -62 -69 -45 69 rlineto
            -107 hlineto
            return
          </CharString>
          <CharString index="15">
            rmoveto
            135 hlineto
            23 130 -13 callsubr
            return
          </CharString>
          <CharString index="16">
            rmoveto
            168 145 85 181 2 callgsubr
            -91 -17 -77 -52 -101 hhcurveto
            -99 -46 52 97 20 2 23 10 55 hvcurveto
            132 23 74 85 126 hhcurveto
            79 55 -37 -77 -10 -1 -10 -2 -10 hvcurveto
            149 hlineto
            3 19 2 19 17 vvcurveto
            143 -119 69 -161 -100 -83 -29 -50 -60 vhcurveto
            -101 -84 -45 -140 -139 vvcurveto
            -190 108 -78 181 vhcurveto
            endchar
          </CharString>
          <CharString index="17">
            -103 callgsubr
            187 -459 -107 callgsubr
            return
          </CharString>
          <CharString index="18">
            -97 callsubr
            endchar
          </CharString>
          <CharString index="19">
            rmoveto
            133 87 68 142 22 hvcurveto
            -132 hlineto
            -64 -11 -38 -36 -63 hhcurveto
            -66 -28 35 64 17 2 20 7 37 hvcurveto
            101 19 41 56 77 hhcurveto
            51 28 -26 -48 -8 -1 -9 -1 -9 hvcurveto
            -3 callgsubr
            3 17 1 16 15 vvcurveto
            108 -88 54 -134 -203 -80 -173 -178 -30 callgsubr
            157 vhcurveto
            endchar
          </CharString>
          <CharString index="20">
            rmoveto
            90 hlineto
            20 6 26 28 47 hhcurveto
            47 18 -28 -20 -1 hvcurveto
            90 hlineto
            1 6 0 6 6 vvcurveto
            59 -49 60 -90 -133 -41 -73 -64 -11 vhcurveto
            return
          </CharString>
          <CharString index="21">
            39 723 868 -83 callgsubr
            return
          </CharString>
          <CharString index="22">
            -20 callsubr
            45 256 rlineto
            196 hlineto
            76 -256 rlineto
            153 hlineto
            -91 277 rlineto
            86 28 73 72 119 vvcurveto
            118 -79 72 -169 vhcurveto
            -314 hlineto
            90 -309 rmoveto
            33 186 rlineto
            196 hlineto
            62 31 -29 -49 -66 -41 -42 -75 hvcurveto
            return
          </CharString>
          <CharString index="23">
            rmoveto
            -25 -137 rlineto
            59 hlineto
            -17 -28 -26 -19 -36 -13 rrcurveto
            -102 -78 callgsubr
            115 hlineto
            82 464 90 32 50 62 19 111 rlinecurve
            10 54 rlineto
            return
          </CharString>
          <CharString index="24">
            rmoveto
            105 hlineto
            -55 132 rlineto
            -133 hlineto
            -2 -3 rlineto
            260 -129 rmoveto
            105 hlineto
            -55 132 rlineto
            -133 hlineto
            -2 -3 rlineto
            return
          </CharString>
          <CharString index="25">
            456 -28 callgsubr
            -249 hlineto
            302 354 11 60 rlineto
            -433 hlineto
            -20 -112 rlineto
            224 hlineto
            -300 -353 rlineto
            return
          </CharString>
          <CharString index="26">
            rmoveto
            100 hlineto
            -56 132 rlineto
            -128 hlineto
            -1 -3 rlineto
            return
          </CharString>
          <CharString index="27">
            rmoveto
            139 87 70 135 24 hvcurveto
            87 493 rlineto
            -146 hlineto
            -87 -491 rlineto
            -52 -9 -36 -33 -60 hhcurveto
            -57 -20 21 44 8 2 22 8 2 callgsubr
            -9 -41 -3 -25 -25 vvcurveto
            -104 80 -53 144 vhcurveto
            endchar
          </CharString>
          <CharString index="28">
            -78 callsubr
            endchar
          </CharString>
          <CharString index="29">
            -102 callgsubr
            -356 -66 callgsubr
            return
          </CharString>
          <CharString index="30">
            -58 callsubr
            241 -70 callsubr
            return
          </CharString>
          <CharString index="31">
            rlineto
            28 5 17 15 28 hhcurveto
            50 hlineto
            17 96 rlineto
            8 -21 -42 8 -32 hhcurveto
            -103 -43 -73 -72 -12 hvcurveto
            -10 -60 rlineto
            -75 hlineto
            -20 -112 rlineto
            75 hlineto
            -78 -441 rlineto
            -28 -5 -17 -15 -28 hhcurveto
            -50 hlineto
            -17 -96 rlineto
            -8 21 42 -8 32 hhcurveto
            return
          </CharString>
          <CharString index="32">
            568 -70 callgsubr
            -344 hlineto
            422 494 12 69 rlineto
            -534 hlineto
            -22 -123 rlineto
            310 hlineto
            -422 -495 rlineto
            return
          </CharString>
          <CharString index="33">
            586 -103 callgsubr
            return
          </CharString>
          <CharString index="34">
            588 -102 callgsubr
            return
          </CharString>
          <CharString index="35">
            208 -12 rmoveto
            59 56 31 50 39 hvcurveto
            7 -69 114 -45 callsubr
            -45 -258 rlineto
            -6 hlineto
            47 -33 -48 26 -78 hhcurveto
            -176 -69 -202 -140 -144 71 -64 119 hvcurveto
            return
          </CharString>
          <CharString index="36">
            733 -102 callgsubr
            return
          </CharString>
          <CharString index="37">
            -461 -107 callgsubr
            return
          </CharString>
          <CharString index="38">
            73 hlineto
            82 104 15 86 -56 callsubr
            -18 -98 rlineto
            52 hlineto
            endchar
          </CharString>
          <CharString index="39">
            rlineto
            -49 callgsubr
            return
          </CharString>
          <CharString index="40">
            rmoveto
            86 60 28 43 47 hvcurveto
            -49 38 67 -22 96 hhcurveto
            -99 callgsubr
            5 28 3 26 24 vvcurveto
            135 -72 62 -146 -67 -49 -18 -30 -39 vhcurveto
            31 -36 -59 17 -87 hhcurveto
            -132 -101 -68 -100 hvcurveto
            132 hlineto
            3 15 rlineto
            21 4 24 26 75 hhcurveto
            61 16 -22 -30 -7 -1 -7 -1 -7 hvcurveto
            -6 -37 rlineto
            -218 -159 -40 -164 -112 123 -18 76 hvcurveto
            317 334 rmoveto
            72 21 39 37 70 hhcurveto
            46 29 -22 -53 -10 -1 -12 -2 -12 hvcurveto
            -507 -226 rmoveto
            -48 -20 19 25 74 110 17 108 hvcurveto
            -3 -16 rlineto
            -66 -12 -43 -53 -92 hhcurveto
            endchar
          </CharString>
          <CharString index="41">
            605 -96 callgsubr
            return
          </CharString>
          <CharString index="42">
            vvcurveto
            -183 116 -86 197 return
          </CharString>
          <CharString index="43">
            rmoveto
            -63 callsubr
            return
          </CharString>
          <CharString index="44">
            137 -50 callgsubr
            return
          </CharString>
          <CharString index="45">
            rlineto
            41 hlineto
            28 10 -6 -13 -23 -20 -6 -29 hvcurveto
            -88 hlineto
            -9 -49 rlineto
            -5 29 39 -3 34 hhcurveto
            return
          </CharString>
          <CharString index="46">
            -64 callsubr
            endchar
          </CharString>
          <CharString index="47">
            145 -53 callsubr
            return
          </CharString>
          <CharString index="48">
            rmoveto
            84 hlineto
            56 64 rlineto
            -18 40 52 -9 64 hhcurveto
            220 75 175 170 61 -16 46 -33 34 hvcurveto
            89 101 rlineto
            -84 hlineto
            -57 -65 rlineto
            19 -41 -52 9 -64 hhcurveto
            -220 -73 -177 -170 -61 16 -46 32 -33 hvcurveto
            98 -12 callgsubr
            -3 11 -1 13 14 vvcurveto
            16 1 18 7 36 vhcurveto
            101 19 43 54 91 hhcurveto
            26 20 -4 -9 16 hvcurveto
            -119 -313 rmoveto
            -25 -20 4 8 -16 hvcurveto
            219 249 rlineto
            2 -11 2 -12 -13 vvcurveto
            -16 -2 -18 -6 -36 vhcurveto
            -101 -17 -45 -54 -92 hhcurveto
            endchar
          </CharString>
          <CharString index="49">
            rmoveto
            45 -69 rlineto
            106 hlineto
            -82 135 rlineto
            -122 hlineto
            -128 -135 rlineto
            -36 callsubr
            return
          </CharString>
          <CharString index="50">
            -58 callsubr
            195 -62 rmoveto
            -31 -61 rlineto
            -6 hlineto
            47 -31 -45 26 -73 hhcurveto
            -169 -66 -202 -140 -137 69 -71 103 61 57 29 52 38 hvcurveto
            6 hlineto
            -49 5 35 -32 52 hhcurveto
            39 28 9 7 15 -31 callsubr
            -29 hlineto
            -15 -14 8 19 -53 callgsubr
            hvcurveto
            -312 -419 -94 callsubr
            endchar
          </CharString>
          <CharString index="51">
            rlineto
            -138 hlineto
            return
          </CharString>
          <CharString index="52">
            -68 callgsubr
            -66 -59 -33 -40 -37 vhcurveto
            -7 hlineto
            return
          </CharString>
          <CharString index="53">
            rmoveto
            105 hlineto
            68 129 -42 callgsubr
            -123 hlineto
            return
          </CharString>
          <CharString index="54">
            hlineto
            121 686 -64 callgsubr
            return
          </CharString>
          <CharString index="55">
            -16 310 -12 -97 callgsubr
            return
          </CharString>
          <CharString index="56">
            rmoveto
            -18 callgsubr
            -102 -132 rlineto
            110 hlineto
            return
          </CharString>
          <CharString index="57">
            39 404 686 rmoveto
            -274 2 callsubr
            -63 hlineto
            -14 -85 rlineto
            62 hlineto
            -55 -312 rlineto
            304 hlineto
            113 90 39 65 63 hvcurveto
            75 78 37 114 120 vvcurveto
            184 -106 86 -181 vhcurveto
            126 -358 rmoveto
            -128 -22 -80 -77 -123 hhcurveto
            -129 hlineto
            33 189 rlineto
            139 hlineto
            15 85 rlineto
            -139 -37 callsubr
            139 hlineto
            99 50 -54 -92 -21 -3 -22 -8 -46 hvcurveto
            endchar
          </CharString>
          <CharString index="58">
            304 hlineto
            113 90 39 65 63 hvcurveto
            75 78 37 114 120 vvcurveto
            184 -106 86 -181 vhcurveto
            -274 hlineto
            554 -686 rmoveto
            -75 callsubr
            -520 55 rmoveto
            77 440 rlineto
            139 hlineto
            99 50 -54 -92 -21 -3 -22 -8 -46 hvcurveto
            -128 -22 -80 -77 -123 hhcurveto
            endchar
          </CharString>
          <CharString index="59">
            515 hlineto
            22 126 rlineto
            -370 hlineto
            99 560 -64 callgsubr
            return
          </CharString>
          <CharString index="60">
            237 -12 -94 callgsubr
            return
          </CharString>
          <CharString index="61">
            rmoveto
            -39 callgsubr
            22 124 -68 callsubr
            return
          </CharString>
          <CharString index="62">
            7 callsubr
            723 -68 callsubr
            return
          </CharString>
          <CharString index="63">
            -11 callsubr
            24 23 5 9 27 vhcurveto
            -6 callgsubr
            33 25 33 20 17 hvcurveto
            return
          </CharString>
          <CharString index="64">
            hlineto
            131 129 -1 3 -68 callsubr
            return
          </CharString>
          <CharString index="65">
            157 hlineto
            83 131 rlineto
            316 hlineto
            11 -131 rlineto
            382 -70 callgsubr
            -276 hlineto
            -15 -10 callsubr
            270 -70 callgsubr
            -303 hlineto
            -14 151 rlineto
            387 -70 callgsubr
            -612 hlineto
            -135 -434 rmoveto
            199 311 rlineto
            5 hlineto
            25 -311 rlineto
            endchar
          </CharString>
          <CharString index="66">
            rmoveto
            96 hlineto
            671 710 rlineto
            -96 hlineto
            return
          </CharString>
          <CharString index="67">
            rmoveto
            -3 callgsubr
            24 137 -56 callsubr
            return
          </CharString>
          <CharString index="68">
            13 hmoveto
            -39 callgsubr
            27 152 91 70 77 -222 rlineto
            147 hlineto
            -126 319 209 207 rlineto
            -158 hlineto
            -212 -211 return
          </CharString>
          <CharString index="69">
            rmoveto
            72 hlineto
            89 129 20 115 -56 callsubr
            -22 -127 rlineto
            return
          </CharString>
          <CharString index="70">
            hlineto
            29 -10 callsubr
            return
          </CharString>
          <CharString index="71">
            119 hlineto
            return
          </CharString>
          <CharString index="72">
            594 -92 callsubr
            return
          </CharString>
          <CharString index="73">
            599 -46 callsubr
            return
          </CharString>
          <CharString index="74">
            -118 hlineto
            return
          </CharString>
          <CharString index="75">
            rlineto
            -14 callgsubr
            return
          </CharString>
          <CharString index="76">
            hvcurveto
            17 96 rlineto
            return
          </CharString>
          <CharString index="77">
            -8 callsubr
            endchar
          </CharString>
          <CharString index="78">
            53 99 14 70 43 -39 19 -48 3 hvcurveto
            return
          </CharString>
          <CharString index="79">
            -16 -9 -7 -26 return
          </CharString>
          <CharString index="80">
            -47 callgsubr
            -61 return
          </CharString>
          <CharString index="81">
            39 9 hmoveto
            -20 callsubr
            33 186 154 121 146 -307 rlineto
            164 hlineto
            -199 405 316 281 rlineto
            -191 hlineto
            -359 -323 57 323 -64 callgsubr
            return
          </CharString>
          <CharString index="82">
            141 hlineto
            69 394 return
          </CharString>
          <CharString index="83">
            120 -53 9 52 -139 197 rlineto
            -21 hlineto
            -205 -189 -11 -60 138 53 return
          </CharString>
          <CharString index="84">
            -294 17 hmoveto
            -72 callgsubr
            return
          </CharString>
          <CharString index="85">
            686 rlineto
            return
          </CharString>
          <CharString index="86">
            rmoveto
            99 hlineto
            -72 200 143 200 rlineto
            -109 hlineto
            -161 -200 rlineto
            return
          </CharString>
          <CharString index="87">
            145 hlineto
            return
          </CharString>
          <CharString index="88">
            6 callsubr
            162 200 -101 200 rlineto
            -99 hlineto
            73 -200 rlineto
            return
          </CharString>
          <CharString index="89">
            rmoveto
            -38 -13 21 34 11 1 12 6 29 hvcurveto
            54 11 16 38 52 hhcurveto
            38 13 -21 -33 -11 -1 -13 -6 -29 hvcurveto
            -54 -11 -15 -38 -53 hhcurveto
            return
          </CharString>
          <CharString index="90">
            73 84 vhcurveto
            76 46 -61 74 hhcurveto
            95 61 73 0 hvcurveto
            21 120 rlineto
            0 -72 -73 -84 vhcurveto
            -76 -46 61 -74 hhcurveto
            -95 -61 -73 0 hvcurveto
            return
          </CharString>
          <CharString index="91">
            4 callsubr
            24 23 5 9 27 hvcurveto
            10 55 rlineto
            return
          </CharString>
          <CharString index="92">
            203 rlineto
            183 hlineto
            19 104 rlineto
            -183 hlineto
            36 204 rlineto
            -107 hlineto
            -36 -204 rlineto
            -182 hlineto
            -19 -104 rlineto
            182 hlineto
            return
          </CharString>
          <CharString index="93">
            -72 -19 -173 rmoveto
            -39 callgsubr
            41 234 rlineto
            6 hlineto
            -47 33 48 -26 78 hhcurveto
            176 69 202 140 144 return
          </CharString>
          <CharString index="94">
            rlineto
            -47 callgsubr
            return
          </CharString>
          <CharString index="95">
            -16 callsubr
            -24 hlineto
            return
          </CharString>
          <CharString index="96">
            vvcurveto
            -58 46 -19 46 return
          </CharString>
          <CharString index="97">
            166 rlineto
            return
          </CharString>
          <CharString index="98">
            -54 callgsubr
            endchar
          </CharString>
          <CharString index="99">
            -723 -64 callsubr
            return
          </CharString>
          <CharString index="100">
            rlineto
            212 hlineto
            return
          </CharString>
          <CharString index="101">
            4 callsubr
            99 41 71 70 12 hvcurveto
            return
          </CharString>
          <CharString index="102">
            rmoveto
            21 hlineto
            205 189 11 60 -138 -53 return
          </CharString>
          <CharString index="103">
            4 28 2 28 29 vvcurveto
            return
          </CharString>
          <CharString index="104">
            58 57 hhcurveto
            39 24 -17 -45 -15 -3 -17 -3 -19 hvcurveto
            -54 -304 rlineto
            -39 callgsubr
            return
          </CharString>
          <CharString index="105">
            rmoveto
            82 hlineto
            124 489 rlineto
            -153 hlineto
            return
          </CharString>
          <CharString index="106">
            rlineto
            172 hlineto
            176 109 92 167 120 -70 71 -186 hvcurveto
            return
          </CharString>
          <CharString index="107">
            -405 -13 callgsubr
            return
          </CharString>
          <CharString index="108">
            317 -15 221 rmoveto
            999 hlineto
            17 98 rlineto
            -1000 hlineto
            endchar
          </CharString>
          <CharString index="109">
            hlineto
            -51 -289 rlineto
            return
          </CharString>
          <CharString index="110">
            -13 callsubr
            endchar
          </CharString>
          <CharString index="111">
            -182 rmoveto
            return
          </CharString>
          <CharString index="112">
            rmoveto
            9 callsubr
            return
          </CharString>
          <CharString index="113">
            7 callgsubr
            hlineto
            return
          </CharString>
          <CharString index="114">
            hlineto
            127 return
          </CharString>
          <CharString index="115">
            rmoveto
            120 hlineto
            20 110 rlineto
            -120 hlineto
            return
          </CharString>
          <CharString index="116">
            -3 callgsubr
            25 137 rlineto
            return
          </CharString>
        <CharString name=".notdef">
          -182 0 vmoveto
          500 700 -500 hlineto
          250 -305 rmoveto
          -170 255 rlineto
          340 hlineto
          -370 -555 rmoveto
          510 vlineto
          170 -255 rlineto
          230 -255 rmoveto
          -170 255 170 255 rlineto
          -370 -555 rmoveto
          170 255 170 -255 rlineto
          endchar
        </CharString>
        <CharString name="A">
          39 -54 hmoveto
          -105 callgsubr
          endchar
        </CharString>
        <CharString name="AE">
          317 -62 hmoveto
          -42 callsubr
        </CharString>
        <CharString name="AEacute">
          317 531 736 -95 callgsubr
          -695 -868 rmoveto
          -42 callsubr
        </CharString>
        <CharString name="Aacute">
          39 378 736 -95 callgsubr
          -534 -868 -102 callsubr
        </CharString>
        <CharString name="Abreve">
          39 433 731 -89 callgsubr
        </CharString>
        <CharString name="Acircumflex">
          39 260 -71 callsubr
          -442 -868 -102 callsubr
        </CharString>
        <CharString name="Adieresis">
          39 273 -65 callgsubr
          -557 -868 -102 callsubr
        </CharString>
        <CharString name="Agrave">
          39 383 736 -81 callsubr
          -352 -865 -102 callsubr
        </CharString>
        <CharString name="Amacron">
          39 286 756 -62 callgsubr
          -355 -844 -102 callsubr
        </CharString>
        <CharString name="Aogonek">
          39 555 4 callsubr
          25 25 5 9 29 hvcurveto
          6 callgsubr
          -36 -14 17 21 29 18 28 18 18 hvcurveto
          57 hlineto
          -147 -22 callsubr
          -182 hlineto
          -388 -686 rlineto
          155 hlineto
          72 131 rlineto
          315 hlineto
          27 -131 rlineto
          -29 -25 -28 -33 -47 vvcurveto
          -58 48 -19 49 vhcurveto
          -314 434 rmoveto
          94 174 rlineto
          19 34 50 101 0 vvcurveto
          5 hlineto
          0 14 -101 7 -34 vhcurveto
          34 -174 rlineto
          endchar
        </CharString>
        <CharString name="Aring">
          39 430 701 -56 callgsubr
          -489 -758 -102 callsubr
        </CharString>
        <CharString name="Aringacute">
          39 395 861 -95 callgsubr
          -551 -993 rmoveto
          155 hlineto
          72 131 rlineto
          315 hlineto
          27 -131 rlineto
          148 hlineto
          -147 -22 callsubr
          11 18 7 22 23 vvcurveto
          49 -31 37 -59 -68 -47 -55 -63 -11 1 -11 4 -9 vhcurveto
          90 4 rmoveto
          -23 -14 14 20 30 22 24 30 23 15 -15 -21 -29 -26 -23 -27 hvcurveto
          -183 -438 rmoveto
          94 174 rlineto
          19 34 50 101 0 vvcurveto
          5 hlineto
          0 14 -101 7 -34 vhcurveto
          34 -174 rlineto
          endchar
        </CharString>
        <CharString name="Atilde">
          39 268 746 rmoveto
          69 hlineto
          27 9 13 10 19 -103 callsubr
          -322 -746 -102 callsubr
        </CharString>
        <CharString name="B">
          39 9 hmoveto
          383 hlineto
          135 123 65 141 76 -45 54 -60 20 hvcurveto
          4 vlineto
          80 15 63 67 83 vvcurveto
          108 -87 53 -138 vhcurveto
          -333 hlineto
          98 -274 rmoveto
          26 151 rlineto
          207 hlineto
          39 33 -22 -44 -42 -27 -43 -72 hvcurveto
          -257 -289 rmoveto
          29 168 rlineto
          205 hlineto
          63 28 -31 -45 -61 -51 -31 -61 hvcurveto
          endchar
        </CharString>
        <CharString name="C">
          39 323 -12 -91 callsubr
        </CharString>
        <CharString name="CR">
          -683 endchar
        </CharString>
        <CharString name="Cacute">
          39 377 736 -95 callgsubr
          -156 -880 -91 callsubr
        </CharString>
        <CharString name="Cacute.loclPLK">
          39 368 736 -54 callsubr
          -94 -880 -91 callsubr
        </CharString>
        <CharString name="Ccaron">
          39 371 733 -93 callsubr
          34 -880 -91 callsubr
        </CharString>
        <CharString name="Ccedilla">
          39 698 431 rmoveto
          3 19 2 19 17 vvcurveto
          143 -119 69 -161 -100 -83 -29 -50 -60 vhcurveto
          -101 -84 -45 -140 -139 vvcurveto
          -169 86 -81 146 -15 vhcurveto
          -22 -68 -62 callsubr
          -29 callsubr
          7 22 156 9 131 85 29 171 rlinecurve
          -144 hlineto
          -91 -17 -77 -52 -101 hhcurveto
          -99 -46 52 97 20 2 23 10 55 hvcurveto
          132 23 74 85 126 hhcurveto
          79 55 -37 -77 -10 -1 -10 -2 -10 hvcurveto
          endchar
        </CharString>
        <CharString name="Ccircumflex">
          39 259 -71 callsubr
          -64 -880 -91 callsubr
        </CharString>
        <CharString name="Cdotaccent">
          39 365 739 -92 callsubr
          -65 -881 -91 callsubr
        </CharString>
        <CharString name="D">
          39 9 hmoveto
          -76 callgsubr
          endchar
        </CharString>
        <CharString name="Dcaron">
          39 346 733 -93 callsubr
          -255 -868 rmoveto
          -76 callgsubr
          endchar
        </CharString>
        <CharString name="Dcroat">
          -50 callsubr
        </CharString>
        <CharString name="E">
          -16 9 hmoveto
          -101 callsubr
          endchar
        </CharString>
        <CharString name="Eacute">
          -16 355 736 -95 callgsubr
          -448 -46 callgsubr
        </CharString>
        <CharString name="Ebreve">
          -16 410 -67 callgsubr
          -401 -731 -89 callsubr
        </CharString>
        <CharString name="Ecaron">
          -16 349 733 -93 callsubr
          -258 -46 callgsubr
        </CharString>
        <CharString name="Ecircumflex">
          -16 237 733 -79 callsubr
        </CharString>
        <CharString name="Edieresis">
          -16 250 -65 callgsubr
          -471 -46 callgsubr
        </CharString>
        <CharString name="Edotaccent">
          -16 343 739 -92 callsubr
          -357 -869 -89 callsubr
        </CharString>
        <CharString name="Egrave">
          -16 360 736 -81 callsubr
          -266 -865 -89 callsubr
        </CharString>
        <CharString name="Emacron">
          -16 263 756 -62 callgsubr
          -269 -844 -89 callsubr
        </CharString>
        <CharString name="Eng">
          39 438 -6 callsubr
          128 727 -80 callgsubr
          -121 -686 rlineto
          -25 callsubr
          rlineto
          3 18 5 42 0 vvcurveto
          5 hlineto
          0 14 -35 14 -28 vhcurveto
          196 -391 -5 -27 rlineto
          -28 -5 -17 -15 -28 hhcurveto
          -48 hlineto
          -16 -96 rlineto
          -8 22 45 -8 5 callgsubr
        </CharString>
        <CharString name="Eogonek">
          -16 450 -12 callsubr
          -26 -15 14 17 31 46 35 39 16 hvcurveto
          22 123 rlineto
          -400 -37 callsubr
          350 -70 callgsubr
          -350 hlineto
          26 151 rlineto
          394 -70 callgsubr
          -539 hlineto
          -121 -686 rlineto
          435 hlineto
          -48 -25 -39 -37 -52 vvcurveto
          -51 49 -17 44 vhcurveto
          endchar
        </CharString>
        <CharString name="Eth">
          -50 callsubr
        </CharString>
        <CharString name="Euro">
          335 -12 rmoveto
          76 51 18 0 hvcurveto
          19 110 rlineto
          0 -51 -16 -55 -50 -104 19 114 -18 vhcurveto
          226 hlineto
          14 81 rlineto
          -240 hlineto
          2 25 3 23 6 22 rrcurveto
          242 hlineto
          14 81 rlineto
          -224 hlineto
          80 47 79 41 100 hhcurveto
          48 42 -16 0 hvcurveto
          19 110 rlineto
          0 -47 18 -82 -126 -164 -53 -180 -69 vhcurveto
          -63 hlineto
          -14 -81 rlineto
          54 hlineto
          -4 -22 -3 -24 -2 -24 rrcurveto
          -58 hlineto
          -13 -81 rlineto
          71 hlineto
          -184 15 147 -61 112 hhcurveto
          endchar
        </CharString>
        <CharString name="F">
          -72 9 hmoveto
          -20 callsubr
          48 271 rlineto
          315 hlineto
          21 123 rlineto
          -315 hlineto
          30 169 rlineto
          352 -70 callgsubr
          -497 hlineto
          endchar
        </CharString>
        <CharString name="G">
          95 738 452 -100 callsubr
          endchar
        </CharString>
        <CharString name="G_tilde.loclGUA">
          95 400 783 rmoveto
          -103 callsubr
          69 hlineto
          27 9 13 10 19 hhcurveto
          338 -331 -100 callsubr
          endchar
        </CharString>
        <CharString name="Gbreve">
          95 455 -67 callgsubr
          283 -279 -100 callsubr
          endchar
        </CharString>
        <CharString name="Gcaron">
          95 516 733 rmoveto
          128 135 rlineto
          -33 callsubr
          -62 -69 -45 69 rlineto
          -107 hlineto
          82 -135 rlineto
          344 -281 -100 callsubr
          endchar
        </CharString>
        <CharString name="Gcircumflex">
          95 463 802 -58 callsubr
          337 -281 -100 callsubr
          endchar
        </CharString>
        <CharString name="Gcommaaccent">
          95 738 452 -100 callsubr
          -339 -590 rmoveto
          52 hlineto
          -66 -92 rlineto
          73 hlineto
          82 104 15 86 -56 callsubr
          endchar
        </CharString>
        <CharString name="Gdotaccent">
          95 546 869 rmoveto
          -47 callgsubr
          -23 -130 rlineto
          135 hlineto
          215 -287 -100 callsubr
          endchar
        </CharString>
        <CharString name="H">
          -25 callgsubr
          endchar
        </CharString>
        <CharString name="Hbar">
          39 9 hmoveto
          -20 callsubr
          51 289 rlineto
          298 2 callsubr
          -20 callsubr
          89 507 rlineto
          60 hlineto
          16 91 rlineto
          -60 hlineto
          16 88 -64 callgsubr
          -16 -88 rlineto
          -298 hlineto
          16 88 -64 callgsubr
          -16 -88 rlineto
          -60 hlineto
          -16 -91 rlineto
          60 hlineto
          129 -93 rmoveto
          16 93 rlineto
          298 hlineto
          -16 -93 rlineto
          endchar
        </CharString>
        <CharString name="Hcircumflex">
          39 259 -71 callsubr
          -378 -868 rmoveto
          -23 callgsubr
          endchar
        </CharString>
        <CharString name="I">
          -405 9 hmoveto
          -60 callsubr
          endchar
        </CharString>
        <CharString name="IJ">
          151 9 hmoveto
          -60 callsubr
          367 -698 -80 callsubr
        </CharString>
        <CharString name="Iacute">
          -405 156 736 -95 callgsubr
          -249 -868 -61 callgsubr
        </CharString>
        <CharString name="Iacute_J.loclNLD">
          151 156 736 -95 callgsubr
          456 -132 -95 callgsubr
          -807 -868 rmoveto
          -60 callsubr
          367 -698 -80 callsubr
        </CharString>
        <CharString name="Ibreve">
          -405 211 -67 callgsubr
          -202 -731 -61 callgsubr
        </CharString>
        <CharString name="Icircumflex">
          -405 38 -71 callsubr
          -157 -868 -61 callgsubr
        </CharString>
        <CharString name="Idieresis">
          -405 51 -65 callgsubr
          -272 -868 -61 callgsubr
        </CharString>
        <CharString name="Idotaccent">
          -405 144 739 -92 callsubr
          -158 -869 -61 callgsubr
        </CharString>
        <CharString name="Igrave">
          -405 161 736 -81 callsubr
          -67 -865 -61 callgsubr
        </CharString>
        <CharString name="Imacron">
          -405 64 756 -62 callgsubr
          -70 -844 -61 callgsubr
        </CharString>
        <CharString name="Iogonek">
          -405 132 hmoveto
          22 -53 callsubr
          -121 -686 rlineto
          33 hlineto
          -32 -26 -35 -35 -52 -44 callsubr
          endchar
        </CharString>
        <CharString name="Itilde">
          -405 46 746 rmoveto
          69 hlineto
          27 9 13 10 19 -103 callsubr
          -37 -746 -61 callgsubr
        </CharString>
        <CharString name="J">
          219 -12 -80 callsubr
        </CharString>
        <CharString name="Jcircumflex">
          318 -71 callsubr
          -227 -880 -80 callsubr
        </CharString>
        <CharString name="K">
          -26 callsubr
          endchar
        </CharString>
        <CharString name="Kcommaaccent">
          -26 callsubr
          77 -916 rmoveto
          -69 callsubr
        </CharString>
        <CharString name="L">
          -72 9 hmoveto
          -48 callsubr
          endchar
        </CharString>
        <CharString name="Lacute">
          -72 156 736 -95 callgsubr
          -249 -868 rmoveto
          -48 callsubr
          endchar
        </CharString>
        <CharString name="Lcaron">
          -72 9 hmoveto
          -48 callsubr
          215 -244 -38 callsubr
          53 hlineto
          endchar
        </CharString>
        <CharString name="Lcommaaccent">
          -72 9 hmoveto
          -48 callsubr
          29 -916 rmoveto
          -69 callsubr
        </CharString>
        <CharString name="Ldot">
          -72 9 hmoveto
          -48 callsubr
          208 -297 rmoveto
          -35 callgsubr
          endchar
        </CharString>
        <CharString name="Lslash">
          -72 9 hmoveto
          515 hlineto
          22 126 rlineto
          -370 hlineto
          38 216 158 93 18 102 -158 -93 43 242 -64 callgsubr
          -60 -338 -73 -44 -18 -102 73 44 rlineto
          endchar
        </CharString>
        <CharString name="M">
          150 9 hmoveto
          140 hlineto
          77 437 rlineto
          5 27 8 83 0 vvcurveto
          5 hlineto
          6 -83 32 -464 rlineto
          143 hlineto
          199 464 36 83 rlineto
          5 hlineto
          0 -19 -79 -6 -31 vhcurveto
          -77 -437 rlineto
          -20 callsubr
          121 -22 callsubr
          -226 hlineto
          -163 -378 rlineto
          -17 -40 -38 -115 0 vvcurveto
          -5 hlineto
          0 -1 110 -4 45 vhcurveto
          -29 378 rlineto
          -216 hlineto
          endchar
        </CharString>
        <CharString name="N">
          39 9 hmoveto
          -91 callgsubr
          endchar
        </CharString>
        <CharString name="NULL">
          -683 endchar
        </CharString>
        <CharString name="Nacute">
          39 392 736 -95 callgsubr
          -485 -868 rmoveto
          -91 callgsubr
          endchar
        </CharString>
        <CharString name="Nacute.loclPLK">
          39 383 736 -54 callsubr
          -423 -868 rmoveto
          -91 callgsubr
          endchar
        </CharString>
        <CharString name="Ncaron">
          39 386 733 -93 callsubr
          -295 -868 rmoveto
          -91 callgsubr
          endchar
        </CharString>
        <CharString name="Ncommaaccent">
          39 9 hmoveto
          -91 callgsubr
          77 -916 rmoveto
          -69 callsubr
        </CharString>
        <CharString name="Ntilde">
          39 282 746 rmoveto
          69 hlineto
          27 9 13 10 19 -103 callsubr
          -273 -746 rmoveto
          -91 callgsubr
          endchar
        </CharString>
        <CharString name="O">
          95 347 -12 -106 callgsubr
          endchar
        </CharString>
        <CharString name="OE">
          317 260 -12 rmoveto
          65 60 21 44 53 hvcurveto
          -9 -53 rlineto
          455 -70 callgsubr
          -310 -37 callsubr
          260 -70 callgsubr
          -260 hlineto
          26 151 rlineto
          304 -70 callgsubr
          -449 hlineto
          -10 -54 rlineto
          45 -42 -59 21 -79 hhcurveto
          -161 -119 -123 -232 -38 hvcurveto
          -7 -40 -4 -37 -34 vvcurveto
          -160 83 -84 146 vhcurveto
          37 123 rmoveto
          -80 -36 45 92 28 4 31 6 36 hvcurveto
          156 28 58 76 111 hhcurveto
          69 42 -40 -101 -26 -3 -30 -6 -35 hvcurveto
          -170 -31 -69 -62 -93 hhcurveto
          endchar
        </CharString>
        <CharString name="Oacute">
          95 380 736 -95 callgsubr
          -135 -880 -106 callgsubr
          endchar
        </CharString>
        <CharString name="Oacute.loclPLK">
          95 371 736 -54 callsubr
          -73 -880 -106 callgsubr
          endchar
        </CharString>
        <CharString name="Obreve">
          95 435 -67 callgsubr
          -88 -743 -106 callgsubr
          endchar
        </CharString>
        <CharString name="Ocircumflex">
          95 262 -71 callsubr
          -43 -880 -106 callgsubr
          endchar
        </CharString>
        <CharString name="Odieresis">
          95 275 -65 callgsubr
          -158 -880 -106 callgsubr
          endchar
        </CharString>
        <CharString name="Ograve">
          95 385 736 -81 callsubr
          47 -877 -106 callgsubr
          endchar
        </CharString>
        <CharString name="Ohorn">
          95 739 828 -99 callsubr
          endchar
        </CharString>
        <CharString name="Ohungarumlaut">
          95 292 736 -59 callgsubr
          -225 -880 -106 callgsubr
          endchar
        </CharString>
        <CharString name="Omacron">
          95 288 756 -62 callgsubr
          44 -856 -106 callgsubr
          endchar
        </CharString>
        <CharString name="Oslash">
          95 -22 -49 -63 callgsubr
        </CharString>
        <CharString name="Oslashacute">
          95 420 736 -95 callgsubr
          -544 -917 -63 callgsubr
        </CharString>
        <CharString name="Otilde">
          95 270 746 rmoveto
          69 hlineto
          27 9 13 10 19 -103 callsubr
          77 -758 -106 callgsubr
          endchar
        </CharString>
        <CharString name="P">
          -16 9 hmoveto
          -20 callsubr
          42 236 -1 callsubr
          -267 hlineto
          87 -327 -1 callgsubr
        </CharString>
        <CharString name="Q">
          95 461 -130 rmoveto
          175 hlineto
          -129 148 rlineto
          157 65 83 163 183 vvcurveto
          182 -117 87 -198 -108 -89 -34 -60 -65 vhcurveto
          -91 -82 -45 -127 -138 -65 callsubr
          vhcurveto
          11 1 rlineto
          -19 122 rmoveto
          -104 -52 57 100 18 2 20 9 52 hvcurveto
          136 24 85 81 137 hhcurveto
          105 52 -58 -99 -19 -2 -20 -9 -51 hvcurveto
          -136 -24 -85 -81 -138 hhcurveto
          endchar
        </CharString>
        <CharString name="R">
          -36 callgsubr
          endchar
        </CharString>
        <CharString name="Racute">
          39 346 736 -95 callgsubr
          -439 -868 rmoveto
          -85 callsubr
          endchar
        </CharString>
        <CharString name="Rcaron">
          39 340 733 -93 callsubr
          -249 -868 rmoveto
          -85 callsubr
          endchar
        </CharString>
        <CharString name="Rcommaaccent">
          -36 callgsubr
          -219 -607 rmoveto
          -69 callsubr
        </CharString>
        <CharString name="S">
          -52 callsubr
          endchar
        </CharString>
        <CharString name="Sacute">
          -16 365 736 -95 callgsubr
          -157 -880 -97 callgsubr
          endchar
        </CharString>
        <CharString name="Sacute.loclPLK">
          -16 356 736 -54 callsubr
          -95 -880 -97 callgsubr
          endchar
        </CharString>
        <CharString name="Scaron">
          -16 359 733 -93 callsubr
          33 -880 -97 callgsubr
          endchar
        </CharString>
        <CharString name="Scedilla">
          -16 275 4 callsubr
          -29 callsubr
          7 23 rlineto
          131 10 126 65 160 212 -368 -44 109 vvcurveto
          45 52 28 90 72 43 -26 -43 -4 0 -5 -3 -13 vhcurveto
          144 hlineto
          4 25 1 13 12 vvcurveto
          114 -115 50 -152 -157 -128 -71 -147 vhcurveto
          -213 365 53 -125 vvcurveto
          -47 -40 -37 -113 -86 -47 31 49 10 4 15 1 7 vhcurveto
          -147 hlineto
          -4 -15 -4 -23 -18 vvcurveto
          -107 104 -60 142 -10 vhcurveto
          -22 -67 -62 callsubr
          endchar
        </CharString>
        <CharString name="Scircumflex">
          -16 247 -71 callsubr
          -65 -880 -97 callgsubr
          endchar
        </CharString>
        <CharString name="Scommaaccent">
          -52 callsubr
          -130 -218 rmoveto
          -69 callsubr
        </CharString>
        <CharString name="T">
          -32 callgsubr
          endchar
        </CharString>
        <CharString name="Tbar">
          -72 176 hmoveto
          -20 callsubr
          62 352 rlineto
          89 hlineto
          16 91 rlineto
          -89 hlineto
          21 118 -29 callgsubr
          -21 -118 rlineto
          -89 hlineto
          -16 -91 rlineto
          89 hlineto
          endchar
        </CharString>
        <CharString name="Tcaron">
          -72 311 733 -93 callsubr
          -53 -868 rmoveto
          -27 callgsubr
          endchar
        </CharString>
        <CharString name="Thorn">
          -16 9 hmoveto
          -20 callsubr
          23 129 -1 callsubr
          -122 hlineto
          19 107 -64 callgsubr
          68 -434 -1 callgsubr
        </CharString>
        <CharString name="U">
          39 324 -12 -104 callsubr
          endchar
        </CharString>
        <CharString name="Uacute">
          39 392 736 -95 callgsubr
          -170 -880 -104 callsubr
          endchar
        </CharString>
        <CharString name="Ubreve">
          39 447 -67 callgsubr
          -123 -743 -104 callsubr
          endchar
        </CharString>
        <CharString name="Ucircumflex">
          39 274 -71 callsubr
          -78 -880 -104 callsubr
          endchar
        </CharString>
        <CharString name="Udieresis">
          39 287 -65 callgsubr
          -193 -880 -104 callsubr
          endchar
        </CharString>
        <CharString name="Ugrave">
          39 397 736 -81 callsubr
          12 -877 -104 callsubr
          endchar
        </CharString>
        <CharString name="Uhorn">
          -86 callsubr
          endchar
        </CharString>
        <CharString name="Uhungarumlaut">
          39 304 736 -59 callgsubr
          -260 -880 -104 callsubr
          endchar
        </CharString>
        <CharString name="Umacron">
          39 300 756 -62 callgsubr
          9 -856 -104 callsubr
          endchar
        </CharString>
        <CharString name="Uogonek">
          39 369 -12 callsubr
          -29 -11 17 21 28 18 28 17 18 hvcurveto
          123 28 74 86 25 142 76 431 rcurveline
          -44 callgsubr
          -75 -424 rlineto
          -100 -18 -64 -51 -94 hhcurveto
          -86 -40 38 74 12 3 21 1 6 hvcurveto
          75 424 -64 callgsubr
          -74 -423 rlineto
          -4 -22 -2 -22 -19 vvcurveto
          -141 97 -70 170 -1 vhcurveto
          -24 -23 -20 -30 -40 -11 callsubr
          vhcurveto
          endchar
        </CharString>
        <CharString name="Uring">
          39 444 701 -56 callgsubr
          -125 -770 -104 callsubr
          endchar
        </CharString>
        <CharString name="Utilde">
          39 282 746 rmoveto
          69 hlineto
          27 9 13 10 19 -103 callsubr
          42 -758 -104 callsubr
          endchar
        </CharString>
        <CharString name="V">
          -16 198 hmoveto
          162 hlineto
          369 -22 callsubr
          -156 hlineto
          -194 -376 rlineto
          -18 -34 -52 -108 0 vvcurveto
          -5 hlineto
          0 -16 108 -6 34 vhcurveto
          -63 376 rlineto
          -148 hlineto
          endchar
        </CharString>
        <CharString name="W">
          261 119 hmoveto
          -87 callgsubr
        </CharString>
        <CharString name="Wacute">
          261 503 736 -95 callgsubr
          -486 -868 rmoveto
          -87 callgsubr
        </CharString>
        <CharString name="Wcircumflex">
          261 385 -71 callsubr
          -394 -868 rmoveto
          -87 callgsubr
        </CharString>
        <CharString name="Wdieresis">
          261 398 -65 callgsubr
          -509 -868 rmoveto
          -87 callgsubr
        </CharString>
        <CharString name="Wgrave">
          261 508 736 -81 callsubr
          -304 -865 rmoveto
          -87 callgsubr
        </CharString>
        <CharString name="X">
          -16 -60 hmoveto
          178 hlineto
          200 239 rlineto
          5 hlineto
          120 -239 rlineto
          162 hlineto
          -186 354 285 332 rlineto
          -177 hlineto
          -174 -208 rlineto
          -5 hlineto
          -103 208 rlineto
          -163 hlineto
          170 -321 rlineto
          endchar
        </CharString>
        <CharString name="Y">
          -16 203 hmoveto
          -81 callgsubr
          endchar
        </CharString>
        <CharString name="Y.loclGUA">
          -16 280 -12 -98 callsubr
        </CharString>
        <CharString name="Yacute">
          -16 365 736 -95 callgsubr
          -264 -868 rmoveto
          -81 callgsubr
          endchar
        </CharString>
        <CharString name="Yacute.loclGUA">
          -16 365 736 -95 callgsubr
          -187 -880 -98 callsubr
        </CharString>
        <CharString name="Ycircumflex">
          -16 247 -71 callsubr
          -172 -868 rmoveto
          -81 callgsubr
          endchar
        </CharString>
        <CharString name="Ycircumflex.loclGUA">
          -16 247 -71 callsubr
          -95 -880 -98 callsubr
        </CharString>
        <CharString name="Ydieresis">
          -16 260 -65 callgsubr
          -287 -868 rmoveto
          -81 callgsubr
          endchar
        </CharString>
        <CharString name="Ydieresis.loclGUA">
          -16 260 -65 callgsubr
          -210 -880 -98 callsubr
        </CharString>
        <CharString name="Ygrave">
          -16 370 736 -81 callsubr
          -82 -865 rmoveto
          -81 callgsubr
          endchar
        </CharString>
        <CharString name="Ygrave.loclGUA">
          -16 370 736 -81 callsubr
          -5 -877 -98 callsubr
        </CharString>
        <CharString name="Z">
          -72 -38 hmoveto
          -75 callsubr
          endchar
        </CharString>
        <CharString name="Zacute">
          -72 307 736 -95 callgsubr
          -447 -868 rmoveto
          -75 callsubr
          endchar
        </CharString>
        <CharString name="Zacute.loclPLK">
          -72 298 736 -54 callsubr
          -385 -868 rmoveto
          -75 callsubr
          endchar
        </CharString>
        <CharString name="Zcaron">
          -72 301 733 -93 callsubr
          -257 -868 rmoveto
          -75 callsubr
          endchar
        </CharString>
        <CharString name="Zdotaccent">
          -72 295 739 -92 callsubr
          -356 -869 rmoveto
          -75 callsubr
          endchar
        </CharString>
        <CharString name="a">
          -92 484 127 -104 callgsubr
        </CharString>
        <CharString name="aacute">
          -92 483 720 -51 callsubr
          132 -464 -104 callgsubr
        </CharString>
        <CharString name="abreve">
          -92 297 586 -90 callgsubr
        </CharString>
        <CharString name="acircumflex">
          -92 305 657 -77 callgsubr
        </CharString>
        <CharString name="acute">
          -350 58 591 -95 callgsubr
          endchar
        </CharString>
        <CharString name="acute.loclPLK">
          -350 149 591 -54 callsubr
          endchar
        </CharString>
        <CharString name="adieresis">
          -92 275 723 rmoveto
          -33 callsubr
          -20 -118 rlineto
          117 hlineto
          232 118 rmoveto
          -119 hlineto
          -21 -118 rlineto
          -36 callsubr
          19 -478 -104 callgsubr
        </CharString>
        <CharString name="ae">
          206 193 -12 -67 callsubr
        </CharString>
        <CharString name="aeacute">
          206 447 591 -95 callgsubr
          -356 -735 -67 callsubr
        </CharString>
        <CharString name="agrave">
          -92 347 591 -37 callgsubr
          237 -464 -104 callgsubr
        </CharString>
        <CharString name="amacron">
          -92 470 699 rmoveto
          -305 hlineto
          -15 -88 rlineto
          305 hlineto
          29 -484 -104 callgsubr
        </CharString>
        <CharString name="ampersand">
          39 298 -12 rmoveto
          169 99 85 131 24 hvcurveto
          16 88 rlineto
          95 hlineto
          19 112 rlineto
          -232 hlineto
          -36 -203 rlineto
          -65 -12 -53 -37 -98 hhcurveto
          -74 -40 25 52 95 77 21 68 hvcurveto
          66 hlineto
          19 112 rlineto
          -69 hlineto
          -53 -41 26 46 68 57 43 95 75 37 -23 -46 -5 0 -6 -4 -25 hvcurveto
          -39 callgsubr
          7 38 1 10 10 vvcurveto
          97 -99 61 -153 -162 -128 -75 -136 -69 41 -35 58 -27 vhcurveto
          -1 -4 rlineto
          -96 -18 -77 -66 -114 vvcurveto
          -107 103 -59 165 vhcurveto
          endchar
        </CharString>
        <CharString name="aogonek">
          -92 484 127 rmoveto
          -53 callgsubr
          vhcurveto
          -10 callgsubr
          -31 -61 rlineto
          -6 hlineto
          47 -31 -45 26 -73 hhcurveto
          -169 -66 -202 -140 -137 69 -71 103 61 57 29 52 38 hvcurveto
          6 hlineto
          4 -37 20 -28 33 -10 rrcurveto
          -46 -23 -32 -31 -45 -11 callsubr
          24 22 5 9 27 vhcurveto
          10 55 rlineto
          -23 hlineto
          -27 -14 11 21 35 45 32 39 18 -31 callsubr
          -29 hlineto
          -15 -14 8 19 hvcurveto
          -242 -20 -94 callsubr
          endchar
        </CharString>
        <CharString name="approxequal">
          -134 20 252 rmoveto
          0 72 -17 callsubr
          -57 -331 rmoveto
          0 71 -17 callsubr
          endchar
        </CharString>
        <CharString name="aring">
          -92 294 556 rmoveto
          66 49 53 63 49 -31 37 -59 -68 -47 -55 -63 -48 32 -36 58 hvcurveto
          20 145 rmoveto
          23 15 -15 -21 -29 -26 -23 -27 -23 -14 14 20 30 22 24 30 hvcurveto
          170 -574 -104 callgsubr
        </CharString>
        <CharString name="aringacute">
          -92 515 906 -51 callsubr
          -90 -221 rmoveto
          66 49 53 63 49 -31 37 -59 -68 -47 -55 -63 -48 32 -36 58 hvcurveto
          20 145 rmoveto
          23 15 -15 -21 -29 -26 -23 -27 -23 -14 14 20 30 22 24 30 hvcurveto
          170 -574 -104 callgsubr
        </CharString>
        <CharString name="arrowboth">
          317 194 69 rmoveto
          52 hlineto
          -30 129 rlineto
          526 hlineto
          -76 -129 rlineto
          10 callgsubr
          173 rlineto
          -52 hlineto
          30 -129 rlineto
          -526 hlineto
          76 129 rlineto
          -60 hlineto
          -220 -173 -3 -21 rlineto
          endchar
        </CharString>
        <CharString name="arrowdown">
          -183 148 -207 -5 callsubr
          127 722 rlineto
          -109 hlineto
          -127 -722 -120 53 -9 -52 rlineto
          endchar
        </CharString>
        <CharString name="arrowleft">
          317 189 68 rmoveto
          52 hlineto
          -30 130 rlineto
          722 hlineto
          19 108 rlineto
          -722 hlineto
          76 130 rlineto
          -60 hlineto
          -220 -173 -3 -21 rlineto
          endchar
        </CharString>
        <CharString name="arrowright">
          317 664 68 rmoveto
          10 callgsubr
          174 rlineto
          -52 hlineto
          30 -130 rlineto
          -722 hlineto
          -19 -108 rlineto
          722 hlineto
          endchar
        </CharString>
        <CharString name="arrowup">
          -183 99 -207 6 callsubr
          127 722 -24 callsubr
          rlineto
          endchar
        </CharString>
        <CharString name="arrowupdn">
          -183 145 -207 -5 callsubr
          93 526 -24 callsubr
          -93 -526 -120 53 -9 -52 rlineto
          endchar
        </CharString>
        <CharString name="arrowupdnbse">
          -183 169 -100 -5 callsubr
          74 419 -24 callsubr
          -74 -419 -120 53 -9 -52 rlineto
          -57 -330 rmoveto
          366 hlineto
          15 86 rlineto
          -366 hlineto
          endchar
        </CharString>
        <CharString name="asciicircum">
          -214 17 294 rmoveto
          113 hlineto
          147 270 53 -270 rlineto
          106 hlineto
          -88 392 rlineto
          -107 hlineto
          endchar
        </CharString>
        <CharString name="asciitilde">
          -99 23 199 rmoveto
          0 72 72 85 vhcurveto
          78 48 -60 76 hhcurveto
          97 60 72 0 hvcurveto
          21 119 rlineto
          0 -72 -72 -85 vhcurveto
          -78 -48 60 -76 hhcurveto
          -97 -60 -72 0 hvcurveto
          endchar
        </CharString>
        <CharString name="asterisk">
          -294 158 362 rmoveto
          83 hlineto
          4 119 83 -74 53 71 -103 46 120 47 -29 70 -109 -73 38 118 rlineto
          -83 hlineto
          -4 -119 -83 74 -53 -70 104 -47 -121 -46 29 -71 109 74 rlineto
          endchar
        </CharString>
        <CharString name="at">
          292 544 698 rmoveto
          -330 -185 -150 -336 -212 99 -153 303 80 58 9 5 33 hvcurveto
          11 81 rlineto
          0 -77 -18 -105 -242 -73 125 170 273 156 129 272 200 109 -93 -149 -129 -59 -127 -94 -26 -11 7 18 4 2 15 62 343 vhcurveto
          -106 hlineto
          -27 -56 rlineto
          -6 hlineto
          43 -28 -41 24 -67 hhcurveto
          -153 -60 -183 -128 -124 63 -65 93 56 52 27 47 34 hvcurveto
          6 -5 hlineto
          -52 55 -16 48 212 81 198 159 197 -138 122 -257 vhcurveto
          -101 -568 rmoveto
          -53 -22 30 57 69 22 130 100 50 27 -30 -61 -67 -30 -128 -94 hvcurveto
          endchar
        </CharString>
        <CharString name="atilde">
          -92 242 638 rmoveto
          -103 callsubr
          69 hlineto
          27 9 13 10 19 hhcurveto
          242 -511 -104 callgsubr
        </CharString>
        <CharString name="b">
          -72 314 -12 rmoveto
          190 66 202 141 142 -74 65 -108 -63 -52 -26 -47 -35 hvcurveto
          -6 hlineto
          45 258 -68 callsubr
          -127 -723 rlineto
          117 hlineto
          21 69 rlineto
          7 hlineto
          -54 26 56 -27 74 hhcurveto
          -33 115 rmoveto
          -59 -32 34 67 73 35 142 113 63 27 -34 -63 -75 -27 -144 -120 hvcurveto
          endchar
        </CharString>
        <CharString name="backslash">
          -405 115 -49 rmoveto
          96 hlineto
          -42 784 rlineto
          -95 hlineto
          endchar
        </CharString>
        <CharString name="bar">
          -403 90 -173 rmoveto
          100 896 -100 hlineto
          endchar
        </CharString>
        <CharString name="braceleft">
          -294 256 -159 rmoveto
          13 77 rlineto
          -43 -46 8 42 hvcurveto
          8 31 193 29 vvcurveto
          54 -30 31 -81 vhcurveto
          1 10 rlineto
          107 26 40 68 14 hvcurveto
          14 67 16 63 12 66 rrcurveto
          51 9 58 10 43 hhcurveto
          13 77 rlineto
          -152 -69 -22 -126 -22 hvcurveto
          -34 -193 rlineto
          -45 -8 -53 -15 -46 hhcurveto
          -17 -92 rlineto
          43 45 -13 -38 hvcurveto
          -22 -39 -163 -50 vvcurveto
          -97 71 -18 124 vhcurveto
          endchar
        </CharString>
        <CharString name="braceright">
          -294 -44 -159 rmoveto
          152 69 22 126 22 hvcurveto
          34 193 rlineto
          45 8 53 15 46 hhcurveto
          17 92 rlineto
          -43 -45 13 38 hvcurveto
          22 39 163 50 vvcurveto
          97 -71 18 -124 vhcurveto
          -13 -77 rlineto
          43 46 -8 -42 hvcurveto
          -8 -31 -193 -29 vvcurveto
          -54 30 -31 81 vhcurveto
          -1 -10 rlineto
          -107 -26 -40 -68 -14 hvcurveto
          -14 -67 -16 -63 -12 -66 rrcurveto
          -51 -9 -58 -10 -43 hhcurveto
          endchar
        </CharString>
        <CharString name="bracketleft">
          -350 -14 -161 rmoveto
          215 hlineto
          16 95 rlineto
          -100 hlineto
          125 706 rlineto
          100 hlineto
          16 95 rlineto
          -216 hlineto
          endchar
        </CharString>
        <CharString name="bracketright">
          -350 -43 -161 rmoveto
          215 hlineto
          157 896 rlineto
          -216 hlineto
          -16 -95 rlineto
          100 hlineto
          -125 -706 rlineto
          -99 hlineto
          endchar
        </CharString>
        <CharString name="breve">
          -350 166 -74 callsubr
          endchar
        </CharString>
        <CharString name="brokenbar">
          -403 90 357 rmoveto
          100 366 -100 hlineto
          -896 vmoveto
          100 366 -100 hlineto
          endchar
        </CharString>
        <CharString name="bullet">
          -333 175 208 rmoveto
          75 61 60 75 75 -61 61 -75 -75 -60 -61 -75 -75 60 -60 75 hvcurveto
          endchar
        </CharString>
        <CharString name="c">
          253 -12 -88 callsubr
        </CharString>
        <CharString name="cacute">
          261 591 -95 callgsubr
          -110 -735 -88 callsubr
        </CharString>
        <CharString name="cacute.loclPLK">
          252 591 -54 callsubr
          -48 -735 -88 callsubr
        </CharString>
        <CharString name="caron">
          -350 93 588 -93 callsubr
          endchar
        </CharString>
        <CharString name="ccaron">
          255 588 -93 callsubr
          80 -735 -88 callsubr
        </CharString>
        <CharString name="ccedilla">
          518 328 rmoveto
          3 17 1 16 15 vvcurveto
          108 -88 54 -134 -203 -80 -173 -178 -115 56 -62 112 -17 vhcurveto
          -23 -70 -62 callsubr
          -29 callsubr
          7 21 124 6 81 68 21 136 rlinecurve
          -132 hlineto
          -64 -11 -38 -36 -63 hhcurveto
          -66 -28 35 64 17 2 20 7 37 hvcurveto
          101 19 41 56 77 hhcurveto
          51 28 -26 -48 -8 -1 -9 -1 -9 hvcurveto
          endchar
        </CharString>
        <CharString name="ccircumflex">
          143 -73 callsubr
          -18 -735 -88 callsubr
        </CharString>
        <CharString name="cdotaccent">
          249 -35 callsubr
          -19 -736 -88 callsubr
        </CharString>
        <CharString name="cedilla">
          -350 131 4 callsubr
          -29 callsubr
          14 44 rlineto
          -85 hlineto
          -29 -88 -62 callsubr
          endchar
        </CharString>
        <CharString name="cent">
          190 -49 rmoveto
          51 hlineto
          21 117 rlineto
          141 83 71 139 22 hvcurveto
          -132 hlineto
          -10 -58 -32 -35 -53 -6 58 327 rcurveline
          36 -7 20 -25 -40 vvcurveto
          -8 -1 -9 -1 -9 vhcurveto
          -3 callgsubr
          3 17 1 16 15 vvcurveto
          95 -68 53 -108 11 vhcurveto
          19 108 rlineto
          -51 hlineto
          -19 -105 rlineto
          -199 -3 -79 -172 -176 vvcurveto
          -119 61 -63 120 -14 vhcurveto
          20 110 rmoveto
          -43 11 -18 33 52 vvcurveto
          17 2 20 7 37 vhcurveto
          16 88 34 54 59 12 rrcurveto
          endchar
        </CharString>
        <CharString name="circumflex">
          -350 -11 -73 callsubr
          endchar
        </CharString>
        <CharString name="colon">
          -350 108 389 -40 callsubr
          -93 -526 -40 callsubr
          endchar
        </CharString>
        <CharString name="comma">
          -405 -13 -156 -60 callgsubr
          endchar
        </CharString>
        <CharString name="copyright">
          -43 callgsubr
          81 vmoveto
          115 45 78 88 hvcurveto
          -74 hlineto
          -65 -24 -35 -62 -71 -29 41 103 105 31 40 69 63 19 -31 -69 vhcurveto
          78 hlineto
          108 -47 58 -113 -122 -57 -66 -145 -144 56 -66 123 vhcurveto
          endchar
        </CharString>
        <CharString name="currency">
          74 99 rmoveto
          55 58 rlineto
          -37 40 55 -18 54 hhcurveto
          54 55 18 37 40 hvcurveto
          55 -58 45 45 -54 56 rlineto
          34 42 16 54 55 vvcurveto
          55 -16 56 -34 39 vhcurveto
          55 54 -48 48 -57 -56 rlineto
          33 -38 -54 18 -53 hhcurveto
          -53 -54 -18 -33 -38 hvcurveto
          -57 56 -48 -48 55 -54 rlineto
          -34 -39 -16 -56 -55 vvcurveto
          -55 16 -54 34 -42 vhcurveto
          -54 -56 rlineto
          249 37 rmoveto
          -91 -72 79 91 89 73 79 90 90 73 -79 -89 -91 -72 -79 -91 hvcurveto
          endchar
        </CharString>
        <CharString name="d">
          -72 -72 callsubr
          42 119 -9 callsubr
        </CharString>
        <CharString name="dagger">
          137 -173 rmoveto
          114 hlineto
          85 598 203 -18 20 113 -209 -2 callgsubr
          rlineto
          endchar
        </CharString>
        <CharString name="daggerdbl">
          138 -173 rmoveto
          108 hlineto
          16 186 202 -17 19 113 -208 -18 50 169 9 165 202 -18 20 113 -208 -2 callgsubr
          -49 -165 -10 -169 -202 18 -18 -113 207 17 rlineto
          endchar
        </CharString>
        <CharString name="dcaron">
          36 -72 callsubr
          407 454 -38 callsubr
          55 hlineto
          -441 -452 -9 callsubr
        </CharString>
        <CharString name="dcroat">
          -72 208 -12 rmoveto
          59 56 31 50 39 hvcurveto
          7 -69 114 hlineto
          103 587 rlineto
          58 hlineto
          13 71 rlineto
          -59 hlineto
          12 65 -68 callsubr
          -11 -65 rlineto
          -154 hlineto
          -13 -71 rlineto
          154 hlineto
          -21 -122 rlineto
          -6 hlineto
          47 -33 -48 26 -78 hhcurveto
          -176 -69 -202 -140 -144 71 -64 119 hvcurveto
          42 119 -9 callsubr
        </CharString>
        <CharString name="degree">
          -283 200 386 rmoveto
          87 69 69 87 87 -69 69 -87 -87 -69 -69 -87 -87 69 -69 87 hvcurveto
          82 vmoveto
          -41 -33 33 41 41 33 32 41 41 32 -32 -41 -41 -32 -33 -41 hvcurveto
          endchar
        </CharString>
        <CharString name="dieresis">
          -350 -8 -66 callsubr
          endchar
        </CharString>
        <CharString name="divide">
          -134 227 402 8 callsubr
          -230 -309 rmoveto
          472 hlineto
          19 105 rlineto
          -472 hlineto
          120 -307 8 callsubr
          endchar
        </CharString>
        <CharString name="dollar">
          184 -49 rmoveto
          51 hlineto
          20 116 rlineto
          128 1 119 48 143 vvcurveto
          103 -103 23 -84 20 vhcurveto
          19 104 rlineto
          33 -5 21 -16 -27 vvcurveto
          -2 0 -3 -1 -5 vhcurveto
          133 hlineto
          0 7 21 23 vvcurveto
          68 -71 43 -103 9 vhcurveto
          19 108 rlineto
          -51 hlineto
          -19 -106 rlineto
          -130 -3 -103 -60 -118 vvcurveto
          -97 94 -25 82 -21 vhcurveto
          -21 -118 rlineto
          -37 5 -31 15 36 vvcurveto
          3 1 8 2 4 vhcurveto
          -133 hlineto
          -4 -10 -3 -16 -13 vvcurveto
          -77 66 -52 120 -10 vhcurveto
          62 349 rmoveto
          -34 10 -23 13 23 vvcurveto
          26 29 17 44 4 vhcurveto
          -9 -336 rmoveto
          19 106 rlineto
          39 -11 28 -15 -27 vvcurveto
          -37 -43 -13 -43 -3 vhcurveto
          endchar
        </CharString>
        <CharString name="dotaccent">
          -350 88 -35 callsubr
          endchar
        </CharString>
        <CharString name="dotbelowcomb">
          -683 -321 -173 -92 callsubr
          endchar
        </CharString>
        <CharString name="dotlessi">
          -405 13 hmoveto
          -63 callsubr
          endchar
        </CharString>
        <CharString name="e">
          254 -12 -106 callsubr
          endchar
        </CharString>
        <CharString name="eacute">
          264 591 -95 callgsubr
          -112 -735 -106 callsubr
          endchar
        </CharString>
        <CharString name="ebreve">
          319 -74 callsubr
          -65 -598 -106 callsubr
          endchar
        </CharString>
        <CharString name="ecaron">
          258 588 -93 callsubr
          78 -735 -106 callsubr
          endchar
        </CharString>
        <CharString name="ecircumflex">
          146 -73 callsubr
          -20 -735 -106 callsubr
          endchar
        </CharString>
        <CharString name="edieresis">
          159 -66 callsubr
          -135 -735 -106 callsubr
          endchar
        </CharString>
        <CharString name="edotaccent">
          252 -35 callsubr
          -21 -736 -106 callsubr
          endchar
        </CharString>
        <CharString name="egrave">
          269 591 -81 callsubr
          70 -732 -106 callsubr
          endchar
        </CharString>
        <CharString name="eight">
          235 -12 rmoveto
          177 86 107 121 60 -25 48 -59 28 hvcurveto
          80 37 43 68 76 vvcurveto
          94 -68 71 -144 -155 -95 -105 -119 -51 22 -44 46 -27 vhcurveto
          -93 -36 -48 -76 -91 vvcurveto
          -92 66 -69 167 vhcurveto
          53 417 rmoveto
          -50 -25 23 44 74 45 42 63 48 27 -24 -44 -74 -46 -41 -62 hvcurveto
          -54 -307 rmoveto
          -58 -30 27 48 77 50 46 73 58 31 -27 -49 -74 -55 -48 -69 hvcurveto
          endchar
        </CharString>
        <CharString name="ellipsis">
          317 38 hmoveto
          -35 callgsubr
          308 -137 rmoveto
          -35 callgsubr
          308 -137 rmoveto
          -35 callgsubr
          endchar
        </CharString>
        <CharString name="emacron">
          172 611 -62 callgsubr
          67 -711 -106 callsubr
          endchar
        </CharString>
        <CharString name="emdash">
          1 callsubr
        </CharString>
        <CharString name="endash">
          -15 221 8 callgsubr
        </CharString>
        <CharString name="eng">
          -72 330 -6 callsubr
          63 354 rlineto
          6 32 4 27 26 vvcurveto
          102 -70 38 -80 -71 -65 -38 -45 -37 vhcurveto
          -15 callgsubr
          -93 -526 rlineto
          -39 callgsubr
          49 274 rlineto
          94 17 56 49 69 hhcurveto
          42 25 -18 -47 -15 -3 -15 -3 -18 hvcurveto
          -59 -331 -69 callgsubr
        </CharString>
        <CharString name="eogonek">
          360 -16 callsubr
          -16 hlineto
          -27 -21 21 25 24 3 42 55 58 hvcurveto
          32 34 18 40 9 55 rrcurveto
          -27 callsubr
          -11 -38 -31 -63 hhcurveto
          -68 -27 31 60 14 1 15 3 17 hvcurveto
          346 hlineto
          6 32 rlineto
          5 28 3 26 24 vvcurveto
          135 -72 62 -146 -209 -75 -178 -173 -30 callgsubr
          158 21 19 1 4 21 vhcurveto
          -26 -26 -21 -33 -38 vvcurveto
          -59 44 -19 48 vhcurveto
          -183 504 rmoveto
          72 21 39 37 70 hhcurveto
          46 29 -22 -53 -10 -1 -12 -2 -12 hvcurveto
          endchar
        </CharString>
        <CharString name="equal">
          -99 58 308 rmoveto
          472 hlineto
          18 104 rlineto
          -472 hlineto
          -55 -316 rmoveto
          472 hlineto
          18 103 rlineto
          -472 hlineto
          endchar
        </CharString>
        <CharString name="equivalence">
          -100 80 442 rmoveto
          473 hlineto
          18 104 rlineto
          -473 hlineto
          -56 -317 rmoveto
          473 hlineto
          19 104 rlineto
          -473 hlineto
          -56 -316 rmoveto
          473 hlineto
          18 103 rlineto
          -473 hlineto
          endchar
        </CharString>
        <CharString name="estimated">
          -83 302 -12 rmoveto
          104 78 50 80 42 hvcurveto
          -34 21 rlineto
          -67 -34 -68 -42 -88 hhcurveto
          -62 -50 19 34 -37 hvcurveto
          165 406 5 vlineto
          165 -98 120 -159 -160 -97 -116 -159 -159 97 -116 160 vhcurveto
          -149 302 rmoveto
          152 vlineto
          34 37 50 20 62 hhcurveto
          61 50 -20 -35 38 hvcurveto
          -151 vlineto
          endchar
        </CharString>
        <CharString name="eth">
          -72 265 -12 rmoveto
          228 77 157 203 96 -30 88 -49 74 hvcurveto
          103 7 13 73 -171 -12 -13 17 -17 16 -17 16 rlinecurve
          -156 hlineto
          -5 -5 19 -18 19 -18 17 -19 rlinecurve
          -103 -7 -12 -73 168 12 20 -28 15 -27 11 -27 rlinecurve
          -5 -4 rlineto
          12 -31 -37 7 -39 hhcurveto
          -60 -57 -22 -42 -42 hvcurveto
          -59 -59 -34 -96 -117 vvcurveto
          -140 81 -64 166 vhcurveto
          -1 -12 callgsubr
          -74 -30 34 65 16 2 17 6 35 hvcurveto
          97 17 43 52 92 hhcurveto
          75 31 -34 -65 -15 -2 -17 -6 -34 hvcurveto
          -98 -18 -43 -53 -93 hhcurveto
          endchar
        </CharString>
        <CharString name="exclam">
          -350 99 197 -2 callsubr
          -113 -686 -40 callsubr
          endchar
        </CharString>
        <CharString name="exclamdbl">
          -79 99 197 -2 callsubr
          244 -489 -2 callsubr
          -410 -686 -40 callsubr
          273 -137 -40 callsubr
          endchar
        </CharString>
        <CharString name="exclamdown">
          -350 115 389 -40 callsubr
          -128 -686 rmoveto
          153 hlineto
          53 489 rlineto
          -82 hlineto
          endchar
        </CharString>
        <CharString name="f">
          -350 -3 4 callsubr
          103 43 73 72 12 hvcurveto
          79 451 rlineto
          93 -28 callgsubr
          -93 hlineto
          9 50 -76 callsubr
          endchar
        </CharString>
        <CharString name="f_f">
          -17 646 619 rmoveto
          50 hlineto
          17 96 rlineto
          8 -21 -42 8 -32 hhcurveto
          -103 -43 -73 -72 -12 hvcurveto
          -10 -60 rlineto
          -196 hlineto
          9 50 -76 callsubr
          103 43 73 72 12 hvcurveto
          79 451 rlineto
          196 hlineto
          -73 -414 rlineto
          -39 callgsubr
          73 414 rlineto
          93 -28 callgsubr
          -93 hlineto
          9 50 rlineto
          28 5 17 15 28 hhcurveto
          endchar
        </CharString>
        <CharString name="fi">
          -72 -3 4 callsubr
          103 43 73 72 12 hvcurveto
          79 451 rlineto
          93 -28 callgsubr
          -93 hlineto
          9 50 -76 callsubr
          454 781 -46 callsubr
          -127 -30 callsubr
        </CharString>
        <CharString name="five">
          239 -12 rmoveto
          146 117 105 177 120 -73 56 -102 -55 -37 -20 -14 -24 hvcurveto
          36 152 rlineto
          276 hlineto
          21 122 rlineto
          -397 hlineto
          -94 -380 127 -16 rlineto
          25 24 30 23 44 hhcurveto
          48 33 -27 -57 -103 -63 -51 -61 -53 -30 31 52 9 1 10 2 11 hvcurveto
          -14 callgsubr
          -3 -17 -1 -15 -15 vvcurveto
          -113 87 -65 142 vhcurveto
          endchar
        </CharString>
        <CharString name="fiveeighths">
          151 40 -12 -41 callsubr
          -534 -379 rmoveto
          80 63 54 95 65 -38 31 -52 -25 -21 -7 -7 -13 hvcurveto
          15 62 rlineto
          143 hlineto
          13 74 rlineto
          -214 hlineto
          -50 -204 74 -10 rlineto
          14 13 14 11 20 hhcurveto
          21 15 -11 -25 -48 -28 -26 -28 -24 -14 13 21 5 1 4 1 5 hvcurveto
          -84 hlineto
          -2 -9 0 -8 -8 vvcurveto
          -58 45 -33 75 vhcurveto
          433 -331 -79 callgsubr
        </CharString>
        <CharString name="fl">
          -72 -3 4 callsubr
          103 43 73 72 12 hvcurveto
          79 451 rlineto
          93 -28 callgsubr
          -93 hlineto
          9 50 -76 callsubr
          349 182 rmoveto
          137 -45 callsubr
          endchar
        </CharString>
        <CharString name="florin">
          43 -183 7 callgsubr
          49 58 87 26 hvcurveto
          126 416 rlineto
          93 hlineto
          32 112 rlineto
          -93 hlineto
          27 86 rlineto
          28 8 20 15 28 hhcurveto
          50 hlineto
          28 96 rlineto
          8 -18 -36 8 -29 hhcurveto
          -110 -47 -57 -88 -28 hvcurveto
          -30 -96 rlineto
          -75 hlineto
          -32 -112 rlineto
          75 hlineto
          -123 -406 rlineto
          -28 -8 -19 -15 -28 hhcurveto
          -50 hlineto
          -27 -96 rlineto
          -8 17 36 -8 29 hhcurveto
          endchar
        </CharString>
        <CharString name="four">
          252 hmoveto
          -39 callgsubr
          26 146 rlineto
          82 hlineto
          19 112 rlineto
          -82 hlineto
          60 338 rlineto
          -63 hlineto
          -24 -54 -47 -89 -38 -53 -25 -142 rcurveline
          -168 hlineto
          52 54 152 210 73 176 rrcurveto
          -152 hlineto
          -73 -171 -78 -144 -100 -125 -18 -112 rcurveline
          293 hlineto
          endchar
        </CharString>
        <CharString name="fraction">
          1 callgsubr
        </CharString>
        <CharString name="franc">
          0 vmoveto
          144 hlineto
          45 256 rlineto
          87 hlineto
          -45 -256 rlineto
          -39 callgsubr
          34 192 rlineto
          96 17 33 51 63 hhcurveto
          38 hlineto
          22 128 rlineto
          0 -14 9 -24 -47 -33 -44 -53 -24 vhcurveto
          -7 85 -113 hlineto
          -15 -85 rlineto
          -87 hlineto
          32 184 rlineto
          212 -70 callgsubr
          -357 hlineto
          endchar
        </CharString>
        <CharString name="g">
          -72 216 -182 -101 callgsubr
        </CharString>
        <CharString name="g_tilde.loclGUA">
          -72 156 601 rmoveto
          69 hlineto
          27 9 13 10 19 -103 callsubr
          60 -783 -101 callgsubr
        </CharString>
        <CharString name="gbreve">
          -72 321 -74 callsubr
          -105 -768 -101 callgsubr
        </CharString>
        <CharString name="gcaron">
          -72 260 588 -93 callsubr
          38 -905 -101 callgsubr
        </CharString>
        <CharString name="gcircumflex">
          -72 148 -73 callsubr
          -60 -905 -101 callgsubr
        </CharString>
        <CharString name="gcommaaccent">
          -72 262 585 rmoveto
          -3 callgsubr
          18 98 rlineto
          -53 hlineto
          70 97 rlineto
          -72 hlineto
          -86 -109 rlineto
          -61 -853 -101 callgsubr
        </CharString>
        <CharString name="gdotaccent">
          -72 254 -35 callsubr
          -61 -906 -101 callgsubr
        </CharString>
        <CharString name="germandbls">
          -72 9 hmoveto
          -39 callgsubr
          91 519 rlineto
          68 12 48 38 62 hhcurveto
          62 26 -33 -47 -63 -43 -40 -61 hvcurveto
          -61 hlineto
          -21 -121 rlineto
          64 hlineto
          57 35 -38 -53 -60 -42 -59 -92 hvcurveto
          -59 hlineto
          -19 -111 rlineto
          72 hlineto
          181 97 92 136 86 -33 51 -73 27 hvcurveto
          4 vlineto
          86 26 55 60 86 vvcurveto
          105 -80 62 -151 -64 -61 -15 -37 -46 vhcurveto
          -44 -36 -31 -57 -14 -79 rrcurveto
          endchar
        </CharString>
        <CharString name="grave">
          -350 171 591 -81 callsubr
          endchar
        </CharString>
        <CharString name="greater">
          -99 6 2 -9 callgsubr
          endchar
        </CharString>
        <CharString name="greaterequal">
          -134 3 124 -9 callgsubr
          -41 -246 rmoveto
          472 hlineto
          18 104 rlineto
          -472 hlineto
          endchar
        </CharString>
        <CharString name="guillemotleft">
          159 126 -21 callsubr
          324 -200 -21 callsubr
          endchar
        </CharString>
        <CharString name="guillemotright">
          3 126 -19 callsubr
          76 -200 -19 callsubr
          endchar
        </CharString>
        <CharString name="guilsinglleft">
          -350 159 126 -21 callsubr
          endchar
        </CharString>
        <CharString name="guilsinglright">
          -350 3 126 -19 callsubr
          endchar
        </CharString>
        <CharString name="h">
          -72 17 hmoveto
          -58 callgsubr
          endchar
        </CharString>
        <CharString name="hbar">
          -72 17 hmoveto
          -55 callsubr
          21 122 rlineto
          154 hlineto
          13 71 rlineto
          -154 hlineto
          11 65 -68 callsubr
          -12 -65 rlineto
          -57 hlineto
          -13 -71 rlineto
          58 hlineto
          endchar
        </CharString>
        <CharString name="hcircumflex">
          -72 44 748 -102 callgsubr
          -155 -883 rmoveto
          -58 callgsubr
          endchar
        </CharString>
        <CharString name="hookabovecomb">
          -683 -162 591 rmoveto
          -100 callgsubr
          -28 callsubr
          hvcurveto
          -14 hlineto
          endchar
        </CharString>
        <CharString name="house">
          -79 77 hmoveto
          450 310 hlineto
          -225 253 -225 -253 rlineto
          69 -240 rmoveto
          213 vlineto
          156 178 156 -178 rlineto
          -213 vlineto
          endchar
        </CharString>
        <CharString name="hungarumlaut">
          -350 -8 591 -59 callgsubr
          endchar
        </CharString>
        <CharString name="hyphen">
          0 callgsubr
        </CharString>
        <CharString name="i">
          -17 callgsubr
          endchar
        </CharString>
        <CharString name="i.loclTRK">
          -405 119 -35 callsubr
          -129 -724 -61 callsubr
        </CharString>
        <CharString name="iacute">
          -405 113 591 -95 callgsubr
          -202 -30 callsubr
        </CharString>
        <CharString name="iacute_j.loclNLD">
          131 591 -95 callgsubr
          176 -132 -95 callgsubr
          -498 -8 callsubr
          163 -708 -82 callgsubr
        </CharString>
        <CharString name="ibreve">
          -405 186 -74 callsubr
          -173 -586 -61 callsubr
        </CharString>
        <CharString name="icircumflex">
          -405 10 -73 callsubr
          -125 -30 callsubr
        </CharString>
        <CharString name="idieresis">
          -405 20 -66 callsubr
          -237 -30 callsubr
        </CharString>
        <CharString name="igrave">
          -405 148 591 -81 callsubr
          -50 -720 -61 callsubr
        </CharString>
        <CharString name="ij">
          -13 callgsubr
          256 -124 -46 callsubr
          -405 -8 callsubr
          163 -708 -82 callgsubr
        </CharString>
        <CharString name="imacron">
          -405 31 639 -62 callgsubr
          -33 -727 -61 callsubr
        </CharString>
        <CharString name="infinity">
          30 177 138 rmoveto
          64 49 38 56 52 hvcurveto
          -83 46 61 -11 44 hhcurveto
          90 84 70 118 83 -59 48 -78 -73 -50 -58 -32 -33 hvcurveto
          59 -35 -45 31 -72 hhcurveto
          -101 -78 -77 -108 -84 59 -50 75 hvcurveto
          18 83 rmoveto
          -34 -22 29 36 58 45 31 35 42 17 -19 -63 30 hvcurveto
          -35 -30 -41 -37 -42 hhcurveto
          299 hmoveto
          -33 -23 12 65 -35 hvcurveto
          56 54 24 21 35 hhcurveto
          35 20 -27 -37 -30 -22 -60 -55 hvcurveto
          endchar
        </CharString>
        <CharString name="integral">
          -409 -65 -141 rmoveto
          128 61 17 95 17 hvcurveto
          26 149 80 613 0 vvcurveto
          43 8 36 14 43 hhcurveto
          13 69 rlineto
          -128 -64 -18 -94 -16 hvcurveto
          -27 -150 -80 -610 0 vvcurveto
          -44 -8 -33 -14 -43 hhcurveto
          endchar
        </CharString>
        <CharString name="integralbt">
          -79 79 -250 rmoveto
          128 62 18 94 17 hvcurveto
          14 80 78 477 70 440 rrcurveto
          -114 hlineto
          -156 -983 rlineto
          -43 -8 -36 -14 -43 hhcurveto
          endchar
        </CharString>
        <CharString name="integraltp">
          -79 155 -250 rmoveto
          114 hlineto
          156 983 rlineto
          43 8 36 14 43 hhcurveto
          12 69 rlineto
          -128 -62 -18 -94 -17 hvcurveto
          -14 -80 -79 -477 -69 -440 rrcurveto
          endchar
        </CharString>
        <CharString name="intersection">
          39 37 hmoveto
          92 hlineto
          72 410 rlineto
          105 18 81 74 108 hhcurveto
          91 53 -58 -85 -12 -1 -12 -2 -12 hvcurveto
          -72 -410 rlineto
          92 hlineto
          72 410 rlineto
          3 17 1 16 16 vvcurveto
          127 -100 90 -143 -137 -127 -101 -165 -29 vhcurveto
          endchar
        </CharString>
        <CharString name="iogonek">
          -405 142 724 rmoveto
          -23 -130 rlineto
          135 hlineto
          23 130 rlineto
          -264 -723 rmoveto
          -32 -26 -36 -35 -53 -44 callsubr
          48 -50 callgsubr
          endchar
        </CharString>
        <CharString name="itilde">
          -405 -2 601 rmoveto
          69 hlineto
          27 9 13 10 19 -103 callsubr
          15 -601 -61 callsubr
        </CharString>
        <CharString name="j">
          0 callsubr
          -149 -905 -82 callgsubr
        </CharString>
        <CharString name="jcircumflex">
          -405 4 -73 callsubr
          -141 -905 -82 callgsubr
        </CharString>
        <CharString name="k">
          -39 callsubr
          72 408 -68 callsubr
          endchar
        </CharString>
        <CharString name="kcommaaccent">
          -39 callsubr
          72 408 -68 callsubr
          -953 vmoveto
          -69 callsubr
        </CharString>
        <CharString name="kgreenlandic">
          -39 callsubr
          37 211 -68 callsubr
          endchar
        </CharString>
        <CharString name="l">
          -405 -20 callgsubr
          endchar
        </CharString>
        <CharString name="lacute">
          -405 165 751 -95 callgsubr
          -254 -883 rmoveto
          137 -45 callsubr
          endchar
        </CharString>
        <CharString name="lcaron">
          -298 -20 callgsubr
          144 -281 -38 callsubr
          53 hlineto
          endchar
        </CharString>
        <CharString name="lcommaaccent">
          -405 -20 callgsubr
          -166 -953 rmoveto
          -69 callsubr
        </CharString>
        <CharString name="ldot">
          -315 -20 callgsubr
          109 -434 rmoveto
          -35 callgsubr
          endchar
        </CharString>
        <CharString name="less">
          -99 476 2 rmoveto
          20 114 -347 142 398 142 20 122 -508 -197 -23 -127 rlineto
          endchar
        </CharString>
        <CharString name="lessequal">
          -134 476 123 rmoveto
          20 114 -347 142 398 142 20 122 -508 -197 -23 -127 rlineto
          -53 -319 rmoveto
          472 hlineto
          18 104 rlineto
          -473 hlineto
          endchar
        </CharString>
        <CharString name="lira">
          -21 hmoveto
          491 -28 callgsubr
          -306 hlineto
          26 82 rlineto
          158 hlineto
          16 92 rlineto
          -158 hlineto
          10 53 rlineto
          158 hlineto
          16 92 rlineto
          -156 hlineto
          14 81 rlineto
          44 8 36 30 50 hhcurveto
          45 26 -23 -39 -5 0 -5 -4 -23 hvcurveto
          136 hlineto
          5 25 1 10 22 vvcurveto
          100 -80 50 -129 -128 -83 -66 -133 -23 vhcurveto
          -12 -68 rlineto
          -75 hlineto
          -16 -92 rlineto
          75 hlineto
          -10 -53 rlineto
          -74 hlineto
          -16 -92 rlineto
          74 hlineto
          -14 -82 rlineto
          -61 hlineto
          endchar
        </CharString>
        <CharString name="logicalnot">
          -99 420 193 rmoveto
          98 hlineto
          47 262 rlineto
          -500 hlineto
          -18 -98 rlineto
          402 hlineto
          endchar
        </CharString>
        <CharString name="longs">
          -405 -3 4 callsubr
          103 42 73 72 13 hvcurveto
          108 613 -76 callsubr
          endchar
        </CharString>
        <CharString name="lozenge">
          -83 145 -133 rmoveto
          127 hlineto
          254 431 -102 430 rlineto
          -127 hlineto
          -255 -430 rlineto
          185 -300 rmoveto
          -61 289 175 310 61 -288 rlineto
          endchar
        </CharString>
        <CharString name="lslash">
          -405 13 hmoveto
          -39 callgsubr
          60 344 79 48 18 102 -79 -48 49 277 -68 callsubr
          -65 -371 -79 -48 -18 -102 79 48 rlineto
          endchar
        </CharString>
        <CharString name="m">
          206 17 hmoveto
          -39 callgsubr
          51 284 rlineto
          75 13 46 -3 callsubr
          51 284 rlineto
          75 13 45 -3 callsubr
          57 313 rlineto
          6 32 4 27 25 vvcurveto
          102 -59 39 -82 -72 -55 -40 -43 -38 vhcurveto
          -8 hlineto
          58 -18 -48 25 -63 hhcurveto
          -69 -53 -40 -43 -37 hvcurveto
          -15 callgsubr
          endchar
        </CharString>
        <CharString name="macron">
          -350 2 611 -62 callgsubr
          endchar
        </CharString>
        <CharString name="minus">
          -99 37 204 rmoveto
          472 hlineto
          19 104 rlineto
          -472 hlineto
          endchar
        </CharString>
        <CharString name="minute">
          -443 74 506 -7 callgsubr
          endchar
        </CharString>
        <CharString name="multiply">
          -99 111 35 rmoveto
          173 146 116 -142 81 71 -117 141 173 146 -64 78 -173 -146 -117 142 -80 -71 117 -142 -173 -145 rlineto
          endchar
        </CharString>
        <CharString name="n">
          -72 17 hmoveto
          -84 callgsubr
        </CharString>
        <CharString name="nacute">
          -72 308 591 -95 callgsubr
          -393 -723 rmoveto
          -84 callgsubr
        </CharString>
        <CharString name="nacute.loclPLK">
          -72 299 591 -54 callsubr
          -331 -723 rmoveto
          -84 callgsubr
        </CharString>
        <CharString name="napostrophe">
          25 22 442 rmoveto
          71 hlineto
          89 129 20 115 -56 callsubr
          -21 -127 rlineto
          52 hlineto
          19 -559 rmoveto
          -84 callgsubr
        </CharString>
        <CharString name="ncaron">
          -72 302 588 -93 callsubr
          -203 -723 rmoveto
          -84 callgsubr
        </CharString>
        <CharString name="ncommaaccent">
          -72 17 hmoveto
          -75 callgsubr
          42 -756 rmoveto
          -69 callsubr
        </CharString>
        <CharString name="nine">
          224 -12 rmoveto
          145 101 88 283 46 hvcurveto
          8 47 4 41 35 vvcurveto
          161 -84 55 -141 -141 -116 -109 -167 -107 55 -68 125 79 47 45 9 13 vhcurveto
          -124 -24 -24 -78 -89 hhcurveto
          -47 -21 24 43 11 2 12 2 14 hvcurveto
          -49 callgsubr
          -3 -18 -2 -18 -17 vvcurveto
          -95 60 -67 142 vhcurveto
          45 368 rmoveto
          -55 -24 32 50 81 44 67 75 55 26 -34 -49 -87 -49 -60 -72 hvcurveto
          endchar
        </CharString>
        <CharString name="notequal">
          -134 64 25 rmoveto
          94 hlineto
          51 71 rlineto
          273 hlineto
          18 103 rlineto
          -218 hlineto
          77 109 rlineto
          160 hlineto
          18 104 rlineto
          -105 hlineto
          52 72 rlineto
          -94 hlineto
          -52 -72 rlineto
          -273 hlineto
          -18 -104 rlineto
          218 hlineto
          -77 -109 rlineto
          -160 hlineto
          -18 -103 rlineto
          105 hlineto
          endchar
        </CharString>
        <CharString name="ntilde">
          -72 198 601 rmoveto
          69 hlineto
          27 9 13 10 19 -103 callsubr
          -181 -601 rmoveto
          -84 callgsubr
        </CharString>
        <CharString name="numbersign">
          37 -12 rmoveto
          104 hlineto
          35 175 rlineto
          120 hlineto
          -35 -175 rlineto
          104 hlineto
          35 175 rlineto
          98 108 -76 hlineto
          25 123 rlineto
          97 108 -75 9 callgsubr
          -120 9 callgsubr
          -86 -108 64 hlineto
          -25 -123 rlineto
          -85 -108 63 hlineto
          126 108 rmoveto
          25 123 rlineto
          120 hlineto
          -25 -123 rlineto
          endchar
        </CharString>
        <CharString name="o">
          -72 265 -12 -107 callsubr
          endchar
        </CharString>
        <CharString name="oacute">
          -72 276 591 -95 callgsubr
          -113 -735 -107 callsubr
          endchar
        </CharString>
        <CharString name="oacute.loclPLK">
          -72 267 591 -54 callsubr
          -51 -735 -107 callsubr
          endchar
        </CharString>
        <CharString name="obreve">
          -72 331 -74 callsubr
          -66 -598 -107 callsubr
          endchar
        </CharString>
        <CharString name="ocircumflex">
          -72 158 -73 callsubr
          -21 -735 -107 callsubr
          endchar
        </CharString>
        <CharString name="odieresis">
          -72 171 -66 callsubr
          -136 -735 -107 callsubr
          endchar
        </CharString>
        <CharString name="oe">
          261 269 -12 rmoveto
          77 58 27 44 43 hvcurveto
          -49 40 65 -22 91 hhcurveto
          -99 callgsubr
          6 28 2 26 24 vvcurveto
          135 -72 62 -146 -80 -60 -29 -45 -44 vhcurveto
          50 -41 -67 24 -92 hhcurveto
          -216 -72 -177 -170 -139 84 -64 167 hvcurveto
          297 334 rmoveto
          72 21 39 37 70 hhcurveto
          46 29 -22 -53 -10 -1 -12 -2 -12 hvcurveto
          -509 -222 rmoveto
          -70 -29 35 66 16 1 18 7 36 hvcurveto
          101 21 39 54 88 hhcurveto
          70 30 -35 -66 -16 -2 -18 -6 -36 hvcurveto
          -101 -16 -44 -54 -89 hhcurveto
          endchar
        </CharString>
        <CharString name="ogonek">
          -350 161 -24 callgsubr
        </CharString>
        <CharString name="ograve">
          -72 281 591 -81 callsubr
          69 -732 -107 callsubr
          endchar
        </CharString>
        <CharString name="ohorn">
          -72 540 686 -98 callgsubr
          endchar
        </CharString>
        <CharString name="ohungarumlaut">
          -72 188 591 -59 callgsubr
          -203 -735 -107 callsubr
          endchar
        </CharString>
        <CharString name="omacron">
          -72 184 611 -62 callgsubr
          66 -711 -107 callsubr
          endchar
        </CharString>
        <CharString name="one">
          24 hmoveto
          445 -28 callgsubr
          -147 hlineto
          101 574 rlineto
          -71 hlineto
          -76 -40 -105 -35 -61 -6 -15 -85 rcurveline
          162 hlineto
          -72 -408 rlineto
          -161 hlineto
          endchar
        </CharString>
        <CharString name="oneeighth">
          151 54 -12 -41 callsubr
          -671 -369 rmoveto
          239 hlineto
          13 75 rlineto
          -74 hlineto
          50 282 rlineto
          -43 hlineto
          -39 -20 -56 -18 -34 -3 -10 -55 rcurveline
          82 hlineto
          -33 -186 rlineto
          -82 hlineto
          553 -416 -79 callgsubr
        </CharString>
        <CharString name="onehalf">
          151 39 -12 -41 callsubr
          -661 -368 -48 callgsubr
          410 -405 -51 callgsubr
          endchar
        </CharString>
        <CharString name="onequarter">
          151 38 -12 -41 callsubr
          -661 -368 -48 callgsubr
          543 -404 -31 callgsubr
        </CharString>
        <CharString name="ordfeminine">
          -313 344 488 rmoveto
          3 1 9 41 229 vhcurveto
          -70 hlineto
          -19 -37 rlineto
          -4 hlineto
          29 -18 -28 16 -44 hhcurveto
          -102 -40 -123 -85 -83 42 -43 62 37 35 18 32 23 hvcurveto
          4 hlineto
          -30 3 20 -20 32 hhcurveto
          23 17 6 4 10 hvcurveto
          10 58 rlineto
          -18 hlineto
          -9 -8 5 12 hvcurveto
          -147 -12 rmoveto
          -35 -15 20 38 46 15 87 66 33 18 -21 -40 -44 -19 -86 -63 hvcurveto
          endchar
        </CharString>
        <CharString name="ordmasculine">
          -318 213 404 rmoveto
          133 46 106 103 85 -52 39 -105 -133 -44 -107 -103 -84 51 -39 104 hvcurveto
          -6 68 rmoveto
          -44 -19 21 40 10 1 11 4 21 hvcurveto
          61 11 26 33 55 hhcurveto
          45 19 -21 -40 -10 -1 -11 -4 -21 hvcurveto
          -61 -10 -27 -33 -56 hhcurveto
          endchar
        </CharString>
        <CharString name="orthogonal">
          296 121 hmoveto
          625 hlineto
          16 89 rlineto
          -536 hlineto
          95 536 rlineto
          -89 hlineto
          endchar
        </CharString>
        <CharString name="oslash">
          -72 -22 -49 -59 callsubr
        </CharString>
        <CharString name="oslashacute">
          -72 283 591 -95 callgsubr
          -407 -772 -59 callsubr
        </CharString>
        <CharString name="otilde">
          -72 166 601 rmoveto
          69 hlineto
          27 9 13 10 19 -103 callsubr
          99 -613 -107 callsubr
          endchar
        </CharString>
        <CharString name="p">
          -14 callsubr
          -71 64 -119 -59 -56 -31 -50 -39 hvcurveto
          -7 69 -114 hlineto
          176 -423 -8 callgsubr
        </CharString>
        <CharString name="paragraph">
          147 -168 rmoveto
          84 hlineto
          140 793 rlineto
          66 hlineto
          -140 -793 rlineto
          84 hlineto
          140 793 rlineto
          61 hlineto
          11 61 rlineto
          -286 hlineto
          -155 -112 -100 -156 -119 83 -58 98 hvcurveto
          endchar
        </CharString>
        <CharString name="parenleft">
          -350 138 -157 rmoveto
          88 hlineto
          -39 88 -24 114 115 vvcurveto
          201 94 214 126 161 vhcurveto
          -92 hlineto
          -157 -150 -95 -206 -201 vvcurveto
          -124 34 -116 65 -96 vhcurveto
          endchar
        </CharString>
        <CharString name="parenright">
          -350 -73 -157 rmoveto
          92 hlineto
          157 150 95 206 201 vvcurveto
          124 -34 116 -65 96 vhcurveto
          -88 hlineto
          39 -88 24 -114 -115 vvcurveto
          -201 -94 -214 -126 -161 vhcurveto
          endchar
        </CharString>
        <CharString name="partialdiff">
          -189 170 -12 rmoveto
          137 103 150 185 40 hvcurveto
          13 56 6 58 59 vvcurveto
          168 -90 71 -103 -52 -40 -13 -16 -31 vhcurveto
          -18 -104 rlineto
          18 28 37 16 47 hhcurveto
          71 33 -44 -111 -28 -3 -49 -10 -20 hvcurveto
          -4 hlineto
          24 -9 -36 41 -70 hhcurveto
          -95 -122 -115 -183 -92 53 -5 callgsubr
          hvcurveto
          5 102 rmoveto
          -32 -16 28 44 97 63 93 55 44 21 -40 -33 3 hvcurveto
          -97 -24 -55 -92 -59 hhcurveto
          endchar
        </CharString>
        <CharString name="percent">
          206 226 337 -21 callgsubr
          -145 -337 rmoveto
          102 hlineto
          628 -22 callsubr
          -104 hlineto
          -482 -268 -18 callsubr
          404 -430 -21 callgsubr
          -1 81 -18 callsubr
          endchar
        </CharString>
        <CharString name="period">
          -405 14 hmoveto
          -35 callgsubr
          endchar
        </CharString>
        <CharString name="periodcentered">
          -350 91 289 rmoveto
          -35 callgsubr
          endchar
        </CharString>
        <CharString name="perthousand">
          317 175 337 rmoveto
          -41 callgsubr
          -129 -337 rmoveto
          88 hlineto
          499 -22 callsubr
          -90 hlineto
          -369 -268 rmoveto
          -38 callgsubr
          297 -429 rmoveto
          -41 callgsubr
          318 hmoveto
          -41 callgsubr
          -319 81 rmoveto
          -38 callgsubr
          318 hmoveto
          -38 callgsubr
          endchar
        </CharString>
        <CharString name="peseta">
          411 563 -12 rmoveto
          25 31 7 9 17 hvcurveto
          11 62 rlineto
          -49 23 61 -29 91 hhcurveto
          105 104 46 142 hvcurveto
          172 -211 -49 83 vvcurveto
          32 27 18 33 30 20 -15 -30 -5 0 -5 -1 -5 vhcurveto
          123 hlineto
          1 5 6 25 18 vvcurveto
          75 -73 43 -103 -30 -27 -4 -8 -26 vhcurveto
          -138 hlineto
          33 148 -68 callsubr
          -25 -148 rlineto
          -32 hlineto
          106 -18 -60 54 -144 hhcurveto
          -151 hlineto
          -121 -686 rlineto
          143 hlineto
          42 236 rlineto
          27 hlineto
          159 74 67 111 35 hvcurveto
          23 hlineto
          -44 -248 rlineto
          -6 -32 -4 -35 -11 vvcurveto
          -55 26 -45 81 vhcurveto
          -350 371 rmoveto
          36 204 rlineto
          19 hlineto
          61 31 -28 -48 -78 -51 -50 -67 hvcurveto
          583 -265 rmoveto
          -31 -31 13 40 4 0 4 3 12 hvcurveto
          -123 hlineto
          -4 -8 -3 -22 -14 vvcurveto
          -8 1 -7 1 -8 vhcurveto
          -8 hlineto
          -24 -13 11 17 5 2 17 3 15 hvcurveto
          44 249 rlineto
          54 hlineto
          -7 -14 -6 -22 -16 -169 211 47 -90 vvcurveto
          -44 -42 -12 -27 vhcurveto
          endchar
        </CharString>
        <CharString name="pi">
          83 44 hmoveto
          142 hlineto
          54 81 70 216 30 117 rrcurveto
          160 hlineto
          -47 -267 rlineto
          -8 -48 -4 -37 -26 vvcurveto
          -17 2 -13 3 -6 vhcurveto
          134 hlineto
          -2 9 -1 11 13 vvcurveto
          28 5 39 10 56 vhcurveto
          45 258 rlineto
          104 hlineto
          30 112 rlineto
          -503 hlineto
          -108 -64 -11 -19 -36 hvcurveto
          -95 vlineto
          9 30 30 4 78 hhcurveto
          -25 -117 -70 -199 -59 -98 rrcurveto
          endchar
        </CharString>
        <CharString name="plus">
          -99 187 hmoveto
          107 hlineto
          36 -15 callsubr
          endchar
        </CharString>
        <CharString name="plusminus">
          -134 189 149 rmoveto
          107 hlineto
          35 -15 callsubr
          -243 -352 rmoveto
          471 hlineto
          19 104 rlineto
          -471 hlineto
          endchar
        </CharString>
        <CharString name="product">
          140 44 -128 rmoveto
          -20 callsubr
          128 726 rlineto
          272 hlineto
          -128 -726 rlineto
          144 hlineto
          128 726 rlineto
          91 hlineto
          23 125 rlineto
          -741 hlineto
          -23 -125 rlineto
          89 hlineto
          endchar
        </CharString>
        <CharString name="q">
          -72 315 -173 rmoveto
          -39 callgsubr
          123 699 rlineto
          -117 hlineto
          -21 -69 rlineto
          -7 hlineto
          54 -26 -56 27 -74 hhcurveto
          -190 -66 -202 -141 -142 74 -65 108 63 52 26 47 35 hvcurveto
          6 hlineto
          -106 46 rmoveto
          -63 -27 34 63 75 27 144 120 59 32 -34 -67 -73 -35 -142 3 callgsubr
        </CharString>
        <CharString name="question">
          -72 201 197 rmoveto
          125 hlineto
          5 28 rlineto
          22 118 217 13 179 vvcurveto
          108 -81 55 -147 -151 -118 -90 -149 vhcurveto
          139 hlineto
          61 40 57 79 72 13 -32 -25 -94 -178 1 -30 -187 vhcurveto
          -44 -240 -40 callsubr
          endchar
        </CharString>
        <CharString name="questiondown">
          -72 284 389 -40 callsubr
          -40 -698 rmoveto
          151 118 90 149 hvcurveto
          -139 hlineto
          -61 -40 -57 -79 -72 -13 32 25 94 178 -1 30 187 vhcurveto
          7 43 rlineto
          -125 hlineto
          -5 -28 rlineto
          -22 -118 -217 -13 -179 vvcurveto
          -108 81 -55 147 vhcurveto
          endchar
        </CharString>
        <CharString name="quotedbl">
          -209 89 407 -16 callgsubr
          220 -132 -16 callgsubr
          endchar
        </CharString>
        <CharString name="quotedblbase">
          -183 -13 -156 -60 callgsubr
          141 -156 -60 callgsubr
          endchar
        </CharString>
        <CharString name="quotedblleft">
          -183 81 393 -22 callgsubr
          201 -125 -22 callgsubr
          endchar
        </CharString>
        <CharString name="quotedblright">
          -183 71 393 -60 callgsubr
          141 -156 -60 callgsubr
          endchar
        </CharString>
        <CharString name="quoteleft">
          -405 81 393 -22 callgsubr
          endchar
        </CharString>
        <CharString name="quotereversed">
          -405 143 393 rmoveto
          72 hlineto
          -28 156 rlineto
          55 hlineto
          24 137 -56 callsubr
          -22 -125 rlineto
          endchar
        </CharString>
        <CharString name="quoteright">
          -405 71 393 -60 callgsubr
          endchar
        </CharString>
        <CharString name="quotesinglbase">
          -405 -13 -156 -60 callgsubr
          endchar
        </CharString>
        <CharString name="quotesingle">
          -445 89 407 -16 callgsubr
          endchar
        </CharString>
        <CharString name="r">
          -23 callsubr
          endchar
        </CharString>
        <CharString name="racute">
          -294 197 591 -95 callgsubr
          -282 -723 rmoveto
          -72 callgsubr
          endchar
        </CharString>
        <CharString name="radical">
          -134 197 -148 rmoveto
          100 hlineto
          339 1005 rlineto
          -79 hlineto
          -277 -835 -7 39 -8 39 -7 39 rlinecurve
          -49 256 -185 -72 13 -80 74 26 rlineto
          endchar
        </CharString>
        <CharString name="rcaron">
          -294 191 588 -93 callsubr
          -92 -723 rmoveto
          -72 callgsubr
          endchar
        </CharString>
        <CharString name="rcommaaccent">
          -23 callsubr
          -132 -756 rmoveto
          -69 callsubr
        </CharString>
        <CharString name="registered">
          -43 callgsubr
          -148 88 rmoveto
          78 156 99 hlineto
          78 -156 rlineto
          84 hlineto
          -87 170 rlineto
          47 21 22 42 54 vvcurveto
          75 -43 51 -86 vhcurveto
          -192 hlineto
          78 -190 rmoveto
          124 104 vlineto
          38 22 -21 -39 -41 -25 -23 -35 hvcurveto
          endchar
        </CharString>
        <CharString name="revlogicalnot">
          -99 18 193 rmoveto
          98 hlineto
          29 164 rlineto
          402 hlineto
          18 98 rlineto
          -500 hlineto
          endchar
        </CharString>
        <CharString name="ring">
          -350 155 556 -56 callgsubr
          endchar
        </CharString>
        <CharString name="s">
          -47 callsubr
          endchar
        </CharString>
        <CharString name="sacute">
          258 591 -95 callgsubr
          -123 -735 -94 callgsubr
          endchar
        </CharString>
        <CharString name="sacute.loclPLK">
          249 591 -54 callsubr
          -61 -735 -94 callgsubr
          endchar
        </CharString>
        <CharString name="scaron">
          252 588 -93 callsubr
          67 -735 -94 callgsubr
          endchar
        </CharString>
        <CharString name="scedilla">
          509 372 rmoveto
          0 7 21 23 vvcurveto
          77 -91 45 -125 -134 -108 -60 -121 vhcurveto
          -169 291 49 -89 vvcurveto
          -43 -60 -11 -48 -48 -48 14 44 3 1 7 2 5 vhcurveto
          -133 hlineto
          0 -7 -16 -23 vvcurveto
          -74 63 -52 113 -11 vhcurveto
          -22 -68 -62 callsubr
          -29 callsubr
          7 22 rlineto
          118 7 104 51 133 174 -292 -52 82 vvcurveto
          31 40 17 57 49 32 -16 -34 vhcurveto
          -1 -10 rlineto
          endchar
        </CharString>
        <CharString name="scircumflex">
          140 -73 callsubr
          -31 -735 -94 callgsubr
          endchar
        </CharString>
        <CharString name="scommaaccent">
          -47 callsubr
          -113 -218 rmoveto
          -69 callsubr
        </CharString>
        <CharString name="second">
          -204 74 506 -7 callgsubr
          135 -180 -7 callgsubr
          endchar
        </CharString>
        <CharString name="section">
          205 4 callsubr
          128 109 60 122 42 -18 32 -28 25 hvcurveto
          70 38 38 56 59 171 -268 14 91 vvcurveto
          38 39 24 53 44 26 -15 -31 -4 0 -4 -1 -4 vhcurveto
          139 hlineto
          2 7 5 21 16 vvcurveto
          77 -89 45 -122 -129 -108 -58 -117 -47 18 -34 28 -25 vhcurveto
          -72 -43 -37 -57 -61 -166 269 -14 -88 vvcurveto
          -39 -41 -25 -51 -44 -26 15 33 3 0 5 1 4 vhcurveto
          -139 hlineto
          -1 -5 -6 -22 -16 vvcurveto
          -78 88 -45 123 vhcurveto
          115 330 rmoveto
          -73 31 -76 31 67 vvcurveto
          36 16 28 29 26 vhcurveto
          73 -35 76 -27 -67 vvcurveto
          -36 -16 -29 -29 -25 vhcurveto
          endchar
        </CharString>
        <CharString name="semicolon">
          -350 107 389 rmoveto
          -35 callgsubr
          -121 -682 -60 callgsubr
          endchar
        </CharString>
        <CharString name="seven">
          68 hmoveto
          165 hlineto
          3 24 2 8 3 19 37 210 160 198 134 136 16 91 rcurveline
          -493 hlineto
          -22 -122 rlineto
          325 hlineto
          -147 -139 -144 -205 -39 -220 rrcurveto
          endchar
        </CharString>
        <CharString name="seveneighths">
          151 15 -12 -41 callsubr
          -582 -374 rmoveto
          96 hlineto
          6 109 91 116 78 81 10 56 rcurveline
          -263 hlineto
          -13 -74 rlineto
          161 hlineto
          -75 -72 -72 -102 -19 -114 rrcurveto
          487 -336 -79 callgsubr
        </CharString>
        <CharString name="six">
          252 -12 rmoveto
          141 116 109 167 107 -55 68 -125 -79 -47 -45 -9 -13 hvcurveto
          124 24 24 78 89 hhcurveto
          47 21 -24 -43 -11 -2 -12 -2 -14 hvcurveto
          -39 callgsubr
          3 18 2 18 17 vvcurveto
          95 -60 67 -142 -145 -101 -88 -283 -46 vhcurveto
          -8 -47 -4 -41 -35 vvcurveto
          -161 84 -55 141 vhcurveto
          -6 -12 callgsubr
          -55 -26 34 49 87 49 60 72 55 24 -32 -50 -81 -44 -67 -75 hvcurveto
          endchar
        </CharString>
        <CharString name="slash">
          -405 -68 -49 rmoveto
          95 hlineto
          319 784 rlineto
          -95 hlineto
          endchar
        </CharString>
        <CharString name="space">
          -405 endchar
        </CharString>
        <CharString name="sterling">
          -21 hmoveto
          491 -28 callgsubr
          -306 hlineto
          42 170 rlineto
          158 hlineto
          19 112 rlineto
          -156 hlineto
          21 118 rlineto
          44 8 36 30 50 hhcurveto
          45 26 -23 -39 -5 0 -5 -4 -23 hvcurveto
          136 hlineto
          5 25 1 10 22 vvcurveto
          100 -80 50 -129 -128 -82 -66 -133 -24 vhcurveto
          -19 -105 rlineto
          -75 hlineto
          -18 -112 rlineto
          74 hlineto
          -30 -170 rlineto
          -61 hlineto
          endchar
        </CharString>
        <CharString name="summation">
          30 -38 -128 rmoveto
          630 hlineto
          23 125 rlineto
          -436 4 hlineto
          322 314 -215 279 rlineto
          4 415 vlineto
          23 125 rlineto
          -602 hlineto
          -21 -114 229 -298 -351 -339 rlineto
          endchar
        </CharString>
        <CharString name="t">
          -350 161 -12 -73 callgsubr
          endchar
        </CharString>
        <CharString name="tbar">
          -350 316 414 rmoveto
          20 112 rlineto
          -91 hlineto
          33 148 rlineto
          -144 hlineto
          -26 -148 rlineto
          -63 hlineto
          -20 -112 rlineto
          63 hlineto
          -16 -89 rlineto
          -63 hlineto
          -11 -71 rlineto
          62 hlineto
          -12 -69 -4 callgsubr
          -56 29 -49 97 26 36 8 8 21 vhcurveto
          17 96 rlineto
          -48 hlineto
          -24 -13 11 18 8 4 22 2 11 hvcurveto
          15 84 rlineto
          91 hlineto
          12 71 rlineto
          -91 hlineto
          16 89 rlineto
          endchar
        </CharString>
        <CharString name="tcaron">
          -204 368 442 -38 callsubr
          53 hlineto
          -281 -571 -73 callgsubr
          endchar
        </CharString>
        <CharString name="thorn">
          -14 callsubr
          -69 64 -116 -57 -55 -30 -43 -35 hvcurveto
          -7 hlineto
          48 272 -68 callsubr
          139 -634 -8 callgsubr
        </CharString>
        <CharString name="three">
          237 -12 rmoveto
          141 116 86 138 74 -40 46 -56 20 hvcurveto
          1 4 rlineto
          74 30 64 52 99 vvcurveto
          104 -82 57 -129 -126 -104 -74 -114 -19 vhcurveto
          -5 -28 rlineto
          139 hlineto
          3 19 rlineto
          57 9 42 28 55 hhcurveto
          45 29 -19 -43 -81 -57 -38 -56 hvcurveto
          -54 hlineto
          -19 -112 rlineto
          51 hlineto
          51 44 -15 -58 -83 -54 -37 -65 -59 -32 24 45 7 0 7 5 29 hvcurveto
          -139 hlineto
          -6 -32 0 -14 -13 vvcurveto
          -101 78 -64 155 vhcurveto
          endchar
        </CharString>
        <CharString name="threeeighths">
          151 38 -12 -41 callsubr
          -534 -373 -57 callgsubr
          7 17 13 -71 callgsubr
          433 -337 -79 callgsubr
        </CharString>
        <CharString name="threequarters">
          151 42 -12 -41 callsubr
          -528 -373 -57 callgsubr
          7 17 13 -71 callgsubr
          423 -324 -31 callgsubr
        </CharString>
        <CharString name="tilde">
          -350 -11 601 rmoveto
          69 hlineto
          27 9 13 10 19 -103 callsubr
          endchar
        </CharString>
        <CharString name="trademark">
          317 193 280 rmoveto
          77 hlineto
          59 333 rlineto
          -3 callgsubr
          12 73 rlineto
          -354 hlineto
          -12 -73 rlineto
          139 hlineto
          198 -334 rmoveto
          71 hlineto
          52 300 rlineto
          2 hlineto
          49 -300 rlineto
          72 hlineto
          156 302 rlineto
          1 hlineto
          -53 -302 rlineto
          77 hlineto
          71 407 rlineto
          -10 callgsubr
          -153 -301 rlineto
          -4 hlineto
          -45 301 rlineto
          -109 hlineto
          endchar
        </CharString>
        <CharString name="two">
          -18 hmoveto
          479 hlineto
          21 122 rlineto
          -291 hlineto
          7 10 12 11 14 11 rrcurveto
          97 73 227 91 209 vvcurveto
          68 -30 103 -182 -125 -125 -60 -188 -15 vhcurveto
          136 hlineto
          8 41 rlineto
          66 13 37 29 65 hhcurveto
          55 23 -33 -34 -184 -381 -63 -39 -236 hvcurveto
          endchar
        </CharString>
        <CharString name="u">
          -72 187 -12 -105 callsubr
          endchar
        </CharString>
        <CharString name="uacute">
          -72 295 591 -95 callgsubr
          -210 -735 -105 callsubr
          endchar
        </CharString>
        <CharString name="ubreve">
          -72 350 -74 callsubr
          -163 -598 -105 callsubr
          endchar
        </CharString>
        <CharString name="ucircumflex">
          -72 177 -73 callsubr
          -118 -735 -105 callsubr
          endchar
        </CharString>
        <CharString name="udieresis">
          -72 190 -66 callsubr
          -233 -735 -105 callsubr
          endchar
        </CharString>
        <CharString name="ugrave">
          -72 300 591 -81 callsubr
          -28 -732 -105 callsubr
          endchar
        </CharString>
        <CharString name="uhorn">
          -85 callgsubr
          endchar
        </CharString>
        <CharString name="uhungarumlaut">
          -72 207 591 -59 callgsubr
          -300 -735 -105 callsubr
          endchar
        </CharString>
        <CharString name="umacron">
          -72 203 611 -62 callgsubr
          -31 -711 -105 callsubr
          endchar
        </CharString>
        <CharString name="underscore">
          -78 -160 8 callgsubr
        </CharString>
        <CharString name="underscoredbl">
          -131 -76 -153 rmoveto
          552 hlineto
          17 91 rlineto
          -552 hlineto
          -44 -250 rmoveto
          551 hlineto
          17 91 rlineto
          -551 hlineto
          endchar
        </CharString>
        <CharString name="uni00A0">
          -405 endchar
        </CharString>
        <CharString name="uni00AD">
          0 callgsubr
        </CharString>
        <CharString name="uni00B2">
          -350 31 329 -51 callgsubr
          endchar
        </CharString>
        <CharString name="uni00B3">
          -350 176 325 rmoveto
          74 64 42 72 37 -18 25 -30 14 hvcurveto
          3 vlineto
          43 18 27 24 47 vvcurveto
          61 -46 30 -71 -65 -55 -40 -62 -10 vhcurveto
          -2 -12 rlineto
          83 hlineto
          1 5 rlineto
          29 7 17 12 -71 callgsubr
          endchar
        </CharString>
        <CharString name="uni00B5">
          -40 callgsubr
        </CharString>
        <CharString name="uni00B9">
          -350 50 330 -48 callgsubr
          endchar
        </CharString>
        <CharString name="uni0162">
          -72 85 686 rmoveto
          -22 -125 -7 callsubr
          -99 -561 rlineto
          28 hlineto
          -25 -77 -62 callsubr
          -29 callsubr
          11 33 rlineto
          31 hlineto
          99 561 -11 callgsubr
          endchar
        </CharString>
        <CharString name="uni0163">
          -350 225 414 rmoveto
          91 -28 callgsubr
          -91 hlineto
          33 148 rlineto
          -144 hlineto
          -26 -148 rlineto
          -63 hlineto
          -20 -112 rlineto
          63 hlineto
          -40 -229 -4 callgsubr
          -35 11 -32 33 -20 vhcurveto
          -28 -83 -62 callsubr
          -29 callsubr
          7 21 rlineto
          3 hlineto
          26 36 8 8 21 -31 callsubr
          -48 hlineto
          -24 -13 11 18 8 4 22 2 11 hvcurveto
          endchar
        </CharString>
        <CharString name="uni018F">
          75 338 -12 rmoveto
          134 94 33 77 63 hvcurveto
          64 77 40 150 105 vvcurveto
          170 -106 98 -191 -97 -77 -17 -35 -58 vhcurveto
          -70 -41 -43 -67 -16 -92 rrcurveto
          143 hlineto
          95 16 79 41 98 hhcurveto
          120 54 -50 -102 -16 -1 -17 -3 -18 hvcurveto
          -518 hlineto
          -8 -48 rlineto
          -5 -30 -3 -28 -26 vvcurveto
          -165 104 -94 187 vhcurveto
          23 117 rmoveto
          -101 -67 36 90 13 1 14 3 15 hvcurveto
          364 hlineto
          -116 -32 -58 -52 -110 hhcurveto
          endchar
        </CharString>
        <CharString name="uni019D">
          39 -9 -6 callsubr
          76 435 -92 callgsubr
          -126 -713 rlineto
          -28 -5 -17 -15 -28 hhcurveto
          -48 hlineto
          -16 -96 rlineto
          -8 22 45 -8 5 callgsubr
        </CharString>
        <CharString name="uni01C4">
          650 1023 733 -93 callsubr
          -932 -868 rmoveto
          -49 callsubr
        </CharString>
        <CharString name="uni01C5">
          539 968 588 -93 callsubr
          -877 -723 rmoveto
          -76 callgsubr
          392 -123 rmoveto
          -82 callsubr
          endchar
        </CharString>
        <CharString name="uni01C6">
          428 -72 callsubr
          649 600 -93 callsubr
          -189 -723 rmoveto
          -82 callsubr
          -347 46 -9 callsubr
        </CharString>
        <CharString name="uni01C7">
          484 9 hmoveto
          -48 callsubr
          700 -698 -80 callsubr
        </CharString>
        <CharString name="uni01C8">
          206 729 -34 callsubr
          -742 -723 rmoveto
          -48 callsubr
          472 -868 -82 callgsubr
        </CharString>
        <CharString name="uni01C9">
          -20 callgsubr
          256 -124 -46 callsubr
          -149 -905 -82 callgsubr
        </CharString>
        <CharString name="uni01CA">
          595 9 hmoveto
          -91 callgsubr
          811 -698 -80 callsubr
        </CharString>
        <CharString name="uni01CB">
          317 840 -34 callsubr
          -853 -723 rmoveto
          -91 callgsubr
          583 -868 -82 callgsubr
        </CharString>
        <CharString name="uni01CC">
          206 729 -34 callsubr
          -734 -723 rmoveto
          -75 callgsubr
          492 -708 -82 callgsubr
        </CharString>
        <CharString name="uni01CD">
          39 372 733 -93 callsubr
          -344 -868 -102 callsubr
        </CharString>
        <CharString name="uni01CE">
          -92 358 588 rmoveto
          128 135 rlineto
          -33 callsubr
          -62 -69 -45 69 rlineto
          -107 hlineto
          82 -135 rlineto
          248 -70 callsubr
          endchar
        </CharString>
        <CharString name="uni01CF">
          -405 150 733 -93 callsubr
          -59 -868 -61 callgsubr
        </CharString>
        <CharString name="uni01D0">
          -405 125 588 -93 callsubr
          -30 -30 callsubr
        </CharString>
        <CharString name="uni01D1">
          95 374 733 -93 callsubr
          55 -880 -106 callgsubr
          endchar
        </CharString>
        <CharString name="uni01D2">
          -72 270 588 -93 callsubr
          77 -735 -107 callsubr
          endchar
        </CharString>
        <CharString name="uni01D3">
          39 386 733 -93 callsubr
          20 -880 -104 callsubr
          endchar
        </CharString>
        <CharString name="uni01D4">
          -72 289 588 -93 callsubr
          -20 -735 -105 callsubr
          endchar
        </CharString>
        <CharString name="uni01D5">
          39 330 923 -62 callgsubr
          -58 -261 -96 callgsubr
          -193 -880 -104 callsubr
          endchar
        </CharString>
        <CharString name="uni01D6">
          -72 233 778 -62 callgsubr
          -58 -261 -96 callgsubr
          -233 -735 -105 callsubr
          endchar
        </CharString>
        <CharString name="uni01D7">
          39 422 903 -95 callgsubr
          -237 -285 -96 callgsubr
          -193 -880 -104 callsubr
          endchar
        </CharString>
        <CharString name="uni01D8">
          -72 325 758 -95 callgsubr
          -237 -285 -96 callgsubr
          -233 -735 -105 callsubr
          endchar
        </CharString>
        <CharString name="uni01D9">
          39 416 900 -93 callsubr
          -47 -285 -96 callgsubr
          -193 -880 -104 callsubr
          endchar
        </CharString>
        <CharString name="uni01DA">
          -72 319 755 -93 callsubr
          -47 -285 -96 callgsubr
          -233 -735 -105 callsubr
          endchar
        </CharString>
        <CharString name="uni01DB">
          39 427 903 -81 callsubr
          -55 -282 -96 callgsubr
          -193 -880 -104 callsubr
          endchar
        </CharString>
        <CharString name="uni01DC">
          -72 330 758 -81 callsubr
          -55 -282 -96 callgsubr
          -233 -735 -105 callsubr
          endchar
        </CharString>
        <CharString name="uni01EA">
          95 432 698 rmoveto
          -219 -140 -136 -216 -33 hvcurveto
          -4 -29 -2 -30 -30 -65 callsubr
          10 10 0 1 9 vhcurveto
          -24 -24 -21 -30 -40 -44 callsubr
          2 vlineto
          141 47 90 120 22 167 rrcurveto
          -4 callsubr
          182 -117 87 -198 vhcurveto
          154 -370 rmoveto
          -136 -23 -83 -81 -135 hhcurveto
          -108 -54 57 100 18 2 20 9 52 hvcurveto
          136 23 83 81 133 hhcurveto
          110 54 -58 -99 -19 -2 -20 -9 -51 hvcurveto
          endchar
        </CharString>
        <CharString name="uni01EB">
          -72 320 538 rmoveto
          -172 -91 -92 -152 -26 hvcurveto
          -5 -27 -2 -29 -31 vvcurveto
          3 -129 100 -91 138 1 rrcurveto
          14 hlineto
          -23 -23 -21 -30 -40 -44 callsubr
          1 vlineto
          92 35 53 79 19 109 rrcurveto
          5 27 2 29 31 vvcurveto
          -3 129 -100 91 -140 -1 rrcurveto
          106 -279 rmoveto
          -13 -108 -49 -52 -88 1 -74 -1 -44 42 -1 68 rrcurveto
          20 1 18 3 20 vhcurveto
          13 108 49 52 88 -1 74 1 44 -42 1 -68 rrcurveto
          -20 -1 -18 -3 -20 vhcurveto
          endchar
        </CharString>
        <CharString name="uni01F1">
          650 9 hmoveto
          -49 callsubr
        </CharString>
        <CharString name="uni01F2">
          539 9 hmoveto
          -76 callgsubr
          392 -123 rmoveto
          -82 callsubr
          endchar
        </CharString>
        <CharString name="uni01F3">
          428 -72 callsubr
          378 12 rmoveto
          -82 callsubr
          -347 46 -9 callsubr
        </CharString>
        <CharString name="uni01F4">
          95 641 865 -51 callsubr
          228 -284 -100 callsubr
          endchar
        </CharString>
        <CharString name="uni01F5">
          -72 266 591 -95 callgsubr
          -152 -905 -101 callgsubr
        </CharString>
        <CharString name="uni0200">
          39 313 736 -83 callsubr
          -457 -865 -102 callsubr
        </CharString>
        <CharString name="uni0201">
          -92 282 591 rmoveto
          -55 132 rlineto
          -133 hlineto
          -2 -3 85 -129 rlineto
          280 hmoveto
          -55 132 rlineto
          -133 hlineto
          -2 -3 85 -129 rlineto
          132 -464 -104 callgsubr
        </CharString>
        <CharString name="uni0202">
          39 271 731 -87 callsubr
          -325 -74 callgsubr
          endchar
        </CharString>
        <CharString name="uni0203">
          -92 304 634 rmoveto
          47 18 -28 -20 -1 hvcurveto
          90 hlineto
          1 6 0 6 6 vvcurveto
          59 -49 60 -90 -133 -41 -73 -64 -11 vhcurveto
          90 hlineto
          20 6 26 28 47 hhcurveto
          180 -507 -104 callgsubr
        </CharString>
        <CharString name="uni0204">
          -16 290 736 -83 callsubr
          -371 -865 -89 callsubr
        </CharString>
        <CharString name="uni0205">
          199 591 -83 callsubr
          -35 -732 -106 callsubr
          endchar
        </CharString>
        <CharString name="uni0206">
          -16 248 731 -87 callsubr
          -239 -731 -89 callsubr
        </CharString>
        <CharString name="uni0207">
          157 586 -87 callsubr
          97 -598 -106 callsubr
          endchar
        </CharString>
        <CharString name="uni0208">
          -405 91 736 -83 callsubr
          -172 -865 -61 callgsubr
        </CharString>
        <CharString name="uni0209">
          -405 66 591 -83 callsubr
          -143 -720 -61 callsubr
        </CharString>
        <CharString name="uni020A">
          -405 49 731 -87 callsubr
          -40 -731 -61 callgsubr
        </CharString>
        <CharString name="uni020B">
          -405 24 586 -87 callsubr
          -11 -586 -61 callsubr
        </CharString>
        <CharString name="uni020C">
          95 315 736 -83 callsubr
          -58 -877 -106 callgsubr
          endchar
        </CharString>
        <CharString name="uni020D">
          -72 211 591 -83 callsubr
          -36 -732 -107 callsubr
          endchar
        </CharString>
        <CharString name="uni020E">
          95 273 731 -87 callsubr
          74 -743 -106 callgsubr
          endchar
        </CharString>
        <CharString name="uni020F">
          -72 169 586 -87 callsubr
          96 -598 -107 callsubr
          endchar
        </CharString>
        <CharString name="uni0210">
          39 281 736 -83 callsubr
          -362 -865 rmoveto
          -85 callsubr
          endchar
        </CharString>
        <CharString name="uni0211">
          -294 132 591 -83 callsubr
          -205 -720 rmoveto
          -72 callgsubr
          endchar
        </CharString>
        <CharString name="uni0212">
          39 239 731 -87 callsubr
          -230 -731 rmoveto
          -85 callsubr
          endchar
        </CharString>
        <CharString name="uni0213">
          -294 90 586 -87 callsubr
          -73 -586 rmoveto
          -72 callgsubr
          endchar
        </CharString>
        <CharString name="uni0214">
          39 327 736 -83 callsubr
          -93 -877 -104 callsubr
          endchar
        </CharString>
        <CharString name="uni0215">
          -72 230 591 -83 callsubr
          -133 -732 -105 callsubr
          endchar
        </CharString>
        <CharString name="uni0216">
          39 285 731 -87 callsubr
          39 -743 -104 callsubr
          endchar
        </CharString>
        <CharString name="uni0217">
          -72 188 586 -87 callsubr
          -1 -598 -105 callsubr
          endchar
        </CharString>
        <CharString name="uni021A">
          -32 callgsubr
          -134 -791 rmoveto
          -69 callsubr
        </CharString>
        <CharString name="uni021B">
          -350 161 -12 -73 callgsubr
          -148 -218 rmoveto
          -69 callsubr
        </CharString>
        <CharString name="uni0232">
          -16 273 756 -62 callgsubr
          -85 -844 rmoveto
          -81 callgsubr
          endchar
        </CharString>
        <CharString name="uni0232.loclGUA">
          -16 273 756 -62 callgsubr
          -8 -856 -98 callsubr
        </CharString>
        <CharString name="uni0233">
          176 611 -62 callgsubr
          -127 -881 -95 callsubr
          endchar
        </CharString>
        <CharString name="uni0233.loclGUA">
          -72 216 611 -62 callgsubr
          -10 -881 -96 callsubr
        </CharString>
        <CharString name="uni0237">
          -405 -9 -182 -82 callgsubr
        </CharString>
        <CharString name="uni0259">
          226 -12 rmoveto
          84 65 19 43 47 hvcurveto
          68 60 38 129 96 vvcurveto
          129 -74 74 -134 -73 -60 -15 -30 -45 vhcurveto
          -48 -33 -32 -51 -12 -69 rrcurveto
          135 hlineto
          61 10 44 31 62 hhcurveto
          64 27 -33 -60 -13 -1 -15 -3 -16 hvcurveto
          -346 hlineto
          -6 -32 rlineto
          -5 -27 -2 -25 -23 vvcurveto
          -127 70 -73 127 vhcurveto
          16 107 rmoveto
          -48 -30 20 53 10 1 12 3 14 hvcurveto
          202 hlineto
          -67 -19 -40 -42 -69 hhcurveto
          endchar
        </CharString>
        <CharString name="uni0272">
          -72 -5 -6 callsubr
          56 315 -93 callgsubr
          -71 -65 -38 -45 -37 vhcurveto
          -15 callgsubr
          -98 -553 -69 callgsubr
        </CharString>
        <CharString name="uni02BC">
          -403 80 442 -38 callsubr
          53 hlineto
          endchar
        </CharString>
        <CharString name="uni02C9">
          -350 2 611 -62 callgsubr
          endchar
        </CharString>
        <CharString name="uni030F">
          -683 -230 591 -83 callsubr
          endchar
        </CharString>
        <CharString name="uni0311">
          -683 -272 586 -87 callsubr
          endchar
        </CharString>
        <CharString name="uni031B">
          -683 -465 686 rmoveto
          -25 -137 rlineto
          59 hlineto
          -26 -42 -46 -23 -70 -9 rrcurveto
          -68 vlineto
          146 21 75 61 25 143 10 54 rcurveline
          endchar
        </CharString>
        <CharString name="uni0326">
          -683 -251 -230 rmoveto
          -69 callsubr
        </CharString>
        <CharString name="uni0328">
          -683 -172 -24 callgsubr
        </CharString>
        <CharString name="uni0394">
          36 -54 hmoveto
          717 hlineto
          -147 -22 callsubr
          -182 hlineto
          -168 -563 rmoveto
          21 33 24 38 14 26 112 206 rcurveline
          14 25 32 67 21 43 rrcurveto
          5 hlineto
          6 -52 9 -62 4 -21 42 -206 rcurveline
          5 -26 10 -39 9 -32 rrcurveto
          endchar
        </CharString>
        <CharString name="uni03A9">
          -55 callgsubr
        </CharString>
        <CharString name="uni03BC">
          -40 callgsubr
        </CharString>
        <CharString name="uni1E0C">
          39 9 hmoveto
          -76 callgsubr
          -88 -296 -92 callsubr
          endchar
        </CharString>
        <CharString name="uni1E0D">
          -72 -72 callsubr
          42 119 -54 callgsubr
          -88 -280 -92 callsubr
          endchar
        </CharString>
        <CharString name="uni1E24">
          -25 callgsubr
          87 -859 -92 callsubr
          endchar
        </CharString>
        <CharString name="uni1E25">
          -72 17 hmoveto
          -58 callgsubr
          18 -896 -92 callsubr
          endchar
        </CharString>
        <CharString name="uni1E44">
          39 380 739 -92 callsubr
          -394 -869 rmoveto
          -91 callgsubr
          endchar
        </CharString>
        <CharString name="uni1E45">
          -72 296 -35 callsubr
          -302 -724 rmoveto
          -84 callgsubr
        </CharString>
        <CharString name="uni1E5A">
          -36 callgsubr
          -209 -550 -92 callsubr
          endchar
        </CharString>
        <CharString name="uni1E5B">
          -23 callsubr
          -122 -699 -92 callsubr
          endchar
        </CharString>
        <CharString name="uni1E62">
          -52 callsubr
          -120 -161 -92 callsubr
          endchar
        </CharString>
        <CharString name="uni1E63">
          -47 callsubr
          -103 -161 -92 callsubr
          endchar
        </CharString>
        <CharString name="uni1E6C">
          -32 callgsubr
          -124 -734 -92 callsubr
          endchar
        </CharString>
        <CharString name="uni1E6D">
          -350 161 -12 -73 callgsubr
          -138 -161 -92 callsubr
          endchar
        </CharString>
        <CharString name="uni1E92">
          -72 -38 hmoveto
          -75 callsubr
          188 -241 -92 callsubr
          endchar
        </CharString>
        <CharString name="uni1E93">
          -183 -25 hmoveto
          -82 callsubr
          120 -234 -92 callsubr
          endchar
        </CharString>
        <CharString name="uni1E9E">
          115 9 hmoveto
          -20 callsubr
          68 384 rlineto
          130 22 79 61 135 hhcurveto
          90 45 -31 -48 -40 -36 -54 -56 hvcurveto
          -191 hlineto
          -22 -125 rlineto
          194 hlineto
          61 34 -25 -38 -42 -38 -47 -63 hvcurveto
          -214 hlineto
          -23 -125 rlineto
          227 hlineto
          147 113 83 135 65 -37 46 -63 18 hvcurveto
          4 vlineto
          65 23 55 71 75 vvcurveto
          109 -111 69 -166 -211 -145 -103 -204 -35 vhcurveto
          endchar
        </CharString>
        <CharString name="uni1EA0">
          39 -54 hmoveto
          -105 callgsubr
          -247 -425 -92 callsubr
          endchar
        </CharString>
        <CharString name="uni1EA1">
          -92 484 127 -107 callgsubr
          -131 -280 -92 callsubr
          endchar
        </CharString>
        <CharString name="uni1EA2">
          39 400 736 rmoveto
          -100 callgsubr
          -28 callsubr
          hvcurveto
          -14 hlineto
          -464 -790 -102 callsubr
        </CharString>
        <CharString name="uni1EA3">
          -92 323 668 rmoveto
          -28 callsubr
          vhcurveto
          -14 hlineto
          -10 -54 rlineto
          -100 callgsubr
          hvcurveto
          161 -541 -104 callgsubr
        </CharString>
        <CharString name="uni1EA4">
          39 543 831 -95 callgsubr
          -385 -230 -102 callgsubr
          -442 -868 -102 callsubr
        </CharString>
        <CharString name="uni1EA5">
          -92 648 815 -51 callsubr
          -212 -29 -57 callsubr
        </CharString>
        <CharString name="uni1EA6">
          39 588 831 -81 callsubr
          -243 -227 -102 callgsubr
          -442 -868 -102 callsubr
        </CharString>
        <CharString name="uni1EA7">
          -92 552 686 -37 callgsubr
          -147 -29 -77 callgsubr
        </CharString>
        <CharString name="uni1EA8">
          39 564 831 rmoveto
          -100 callgsubr
          -28 callsubr
          hvcurveto
          -14 hlineto
          -314 -152 -102 callgsubr
          -442 -868 -102 callsubr
        </CharString>
        <CharString name="uni1EA9">
          -92 490 830 rmoveto
          -25 -35 -3 -5 -25 hvcurveto
          -8 -44 rlineto
          58 hlineto
          21 11 -3 -12 -28 callsubr
          hvcurveto
          -14 hlineto
          -10 -54 rlineto
          68 hlineto
          5 25 rlineto
          48 3 48 18 46 vvcurveto
          42 -62 10 -45 vhcurveto
          -185 -173 -57 callsubr
        </CharString>
        <CharString name="uni1EAA">
          39 290 906 rmoveto
          69 hlineto
          27 9 13 10 19 -103 callsubr
          -30 -173 -102 callgsubr
          -442 -868 -102 callsubr
        </CharString>
        <CharString name="uni1EAB">
          -92 264 798 rmoveto
          -103 callsubr
          69 hlineto
          27 9 13 10 19 hhcurveto
          41 -141 -77 callgsubr
        </CharString>
        <CharString name="uni1EAC">
          39 260 -71 callsubr
          -442 -868 rmoveto
          -105 callgsubr
          -247 -425 -92 callsubr
          endchar
        </CharString>
        <CharString name="uni1EAD">
          -92 305 657 -77 callsubr
          -131 -280 -92 callsubr
          endchar
        </CharString>
        <CharString name="uni1EAE">
          39 384 868 -95 callgsubr
          -53 -269 -89 callgsubr
        </CharString>
        <CharString name="uni1EAF">
          -92 489 852 -51 callsubr
          -61 -137 -90 callgsubr
        </CharString>
        <CharString name="uni1EB0">
          39 408 868 -81 callsubr
          110 -266 -89 callgsubr
        </CharString>
        <CharString name="uni1EB1">
          -92 297 586 rmoveto
          46 37 12 21 28 hvcurveto
          36 27 20 41 7 36 rrcurveto
          -78 hlineto
          -34 callgsubr
          88 hlineto
          -21 -7 -27 -27 -47 hhcurveto
          -48 -14 25 23 hvcurveto
          -90 hlineto
          -2 -8 0 -9 -8 vvcurveto
          -58 38 -54 113 vhcurveto
          187 -459 -104 callgsubr
        </CharString>
        <CharString name="uni1EB2">
          39 405 868 rmoveto
          -100 callgsubr
          -28 callsubr
          hvcurveto
          -14 hlineto
          18 -191 -89 callgsubr
        </CharString>
        <CharString name="uni1EB3">
          -92 328 800 rmoveto
          -28 callsubr
          vhcurveto
          -14 hlineto
          -10 -54 rlineto
          -100 callgsubr
          hvcurveto
          -31 -214 -90 callgsubr
        </CharString>
        <CharString name="uni1EB4">
          39 283 906 rmoveto
          69 hlineto
          27 9 13 10 19 -103 callsubr
          150 -175 -89 callgsubr
        </CharString>
        <CharString name="uni1EB5">
          -92 257 798 rmoveto
          -103 callsubr
          69 hlineto
          27 9 13 10 19 hhcurveto
          40 -212 -90 callgsubr
        </CharString>
        <CharString name="uni1EB6">
          39 433 731 -88 callgsubr
          -247 -425 -92 callsubr
          endchar
        </CharString>
        <CharString name="uni1EB7">
          -92 297 586 -90 callsubr
          -131 -280 -92 callsubr
          endchar
        </CharString>
        <CharString name="uni1EB8">
          -16 9 hmoveto
          -101 callsubr
          60 -859 -92 callsubr
          endchar
        </CharString>
        <CharString name="uni1EB9">
          254 -12 -106 callsubr
          -245 -495 -92 callsubr
          endchar
        </CharString>
        <CharString name="uni1EBA">
          -16 377 736 rmoveto
          -100 callgsubr
          -28 callsubr
          hvcurveto
          -14 hlineto
          -378 -790 -89 callsubr
        </CharString>
        <CharString name="uni1EBB">
          286 591 rmoveto
          -100 callgsubr
          -28 callsubr
          hvcurveto
          -14 hlineto
          -42 -657 -106 callsubr
          endchar
        </CharString>
        <CharString name="uni1EBC">
          -16 245 746 rmoveto
          69 hlineto
          27 9 13 10 19 -103 callsubr
          -236 -746 -89 callsubr
        </CharString>
        <CharString name="uni1EBD">
          154 601 rmoveto
          69 hlineto
          27 9 13 10 19 -103 callsubr
          100 -613 -106 callsubr
          endchar
        </CharString>
        <CharString name="uni1EBE">
          -16 520 831 -95 callgsubr
          -385 -230 -79 callsubr
        </CharString>
        <CharString name="uni1EBF">
          429 686 -95 callgsubr
          -385 -230 -102 callgsubr
          -20 -735 -106 callsubr
          endchar
        </CharString>
        <CharString name="uni1EC0">
          -16 565 831 -81 callsubr
          -243 -227 -79 callsubr
        </CharString>
        <CharString name="uni1EC1">
          474 686 -81 callsubr
          -243 -227 -102 callgsubr
          -20 -735 -106 callsubr
          endchar
        </CharString>
        <CharString name="uni1EC2">
          -16 541 831 rmoveto
          -100 callgsubr
          -28 callsubr
          hvcurveto
          -14 hlineto
          -314 -152 -79 callsubr
        </CharString>
        <CharString name="uni1EC3">
          450 686 rmoveto
          -100 callgsubr
          -28 callsubr
          hvcurveto
          -14 hlineto
          -314 -152 -102 callgsubr
          -20 -735 -106 callsubr
          endchar
        </CharString>
        <CharString name="uni1EC4">
          -16 267 906 rmoveto
          69 hlineto
          27 9 13 10 19 -103 callsubr
          -30 -173 -79 callsubr
        </CharString>
        <CharString name="uni1EC5">
          176 761 rmoveto
          69 hlineto
          27 9 13 10 19 -103 callsubr
          -30 -173 -102 callgsubr
          -20 -735 -106 callsubr
          endchar
        </CharString>
        <CharString name="uni1EC6">
          -16 237 733 -78 callsubr
          60 -859 -92 callsubr
          endchar
        </CharString>
        <CharString name="uni1EC7">
          146 -73 callsubr
          -20 -735 -106 callsubr
          -245 -495 -92 callsubr
          endchar
        </CharString>
        <CharString name="uni1EC8">
          -405 178 736 rmoveto
          -100 callgsubr
          -28 callsubr
          hvcurveto
          -14 hlineto
          -179 -790 -61 callgsubr
        </CharString>
        <CharString name="uni1EC9">
          -405 153 591 rmoveto
          -100 callgsubr
          -28 callsubr
          hvcurveto
          -14 hlineto
          -150 -645 -61 callsubr
        </CharString>
        <CharString name="uni1ECA">
          -405 9 hmoveto
          -60 callsubr
          -146 -859 -92 callsubr
          endchar
        </CharString>
        <CharString name="uni1ECB">
          -17 callgsubr
          -122 -699 -92 callsubr
          endchar
        </CharString>
        <CharString name="uni1ECC">
          95 347 -12 -106 callgsubr
          -100 -284 -92 callsubr
          endchar
        </CharString>
        <CharString name="uni1ECD">
          -72 265 -12 -107 callsubr
          -114 -273 -92 callsubr
          endchar
        </CharString>
        <CharString name="uni1ECE">
          95 402 736 rmoveto
          -100 callgsubr
          -28 callsubr
          hvcurveto
          -14 hlineto
          -65 -802 -106 callgsubr
          endchar
        </CharString>
        <CharString name="uni1ECF">
          -72 298 591 rmoveto
          -100 callgsubr
          -28 callsubr
          hvcurveto
          -14 hlineto
          -43 -657 -107 callsubr
          endchar
        </CharString>
        <CharString name="uni1ED0">
          95 545 831 -95 callgsubr
          -385 -230 -102 callgsubr
          -43 -880 -106 callgsubr
          endchar
        </CharString>
        <CharString name="uni1ED1">
          -72 441 686 -95 callgsubr
          -385 -230 -102 callgsubr
          -21 -735 -107 callsubr
          endchar
        </CharString>
        <CharString name="uni1ED2">
          95 590 831 -81 callsubr
          -243 -227 -102 callgsubr
          -43 -880 -106 callgsubr
          endchar
        </CharString>
        <CharString name="uni1ED3">
          -72 486 686 -81 callsubr
          -243 -227 -102 callgsubr
          -21 -735 -107 callsubr
          endchar
        </CharString>
        <CharString name="uni1ED4">
          95 566 831 rmoveto
          -100 callgsubr
          -28 callsubr
          hvcurveto
          -14 hlineto
          -314 -152 -102 callgsubr
          -43 -880 -106 callgsubr
          endchar
        </CharString>
        <CharString name="uni1ED5">
          -72 462 686 rmoveto
          -100 callgsubr
          -28 callsubr
          hvcurveto
          -14 hlineto
          -314 -152 -102 callgsubr
          -21 -735 -107 callsubr
          endchar
        </CharString>
        <CharString name="uni1ED6">
          95 292 906 rmoveto
          69 hlineto
          27 9 13 10 19 -103 callsubr
          -30 -173 -102 callgsubr
          -43 -880 -106 callgsubr
          endchar
        </CharString>
        <CharString name="uni1ED7">
          -72 188 761 rmoveto
          69 hlineto
          27 9 13 10 19 -103 callsubr
          -30 -173 -102 callgsubr
          -21 -735 -107 callsubr
          endchar
        </CharString>
        <CharString name="uni1ED8">
          95 262 -71 callsubr
          -43 -880 -106 callgsubr
          -100 -284 -92 callsubr
          endchar
        </CharString>
        <CharString name="uni1ED9">
          -72 158 -73 callsubr
          -21 -735 -107 callsubr
          -114 -273 -92 callsubr
          endchar
        </CharString>
        <CharString name="uni1EDA">
          95 621 865 -51 callsubr
          249 92 -99 callsubr
          endchar
        </CharString>
        <CharString name="uni1EDB">
          -72 517 720 -51 callsubr
          154 95 -98 callgsubr
          endchar
        </CharString>
        <CharString name="uni1EDC">
          95 485 736 -37 callgsubr
          354 92 -99 callsubr
          endchar
        </CharString>
        <CharString name="uni1EDD">
          -72 381 591 -37 callgsubr
          259 95 -98 callgsubr
          endchar
        </CharString>
        <CharString name="uni1EDE">
          95 461 813 rmoveto
          -28 callsubr
          vhcurveto
          -14 hlineto
          -10 -54 rlineto
          -100 callgsubr
          hvcurveto
          278 15 -99 callsubr
          endchar
        </CharString>
        <CharString name="uni1EDF">
          -72 357 668 rmoveto
          -28 callsubr
          vhcurveto
          -14 hlineto
          -10 -54 rlineto
          -100 callgsubr
          hvcurveto
          183 18 -98 callgsubr
          endchar
        </CharString>
        <CharString name="uni1EE0">
          95 380 783 rmoveto
          -103 callsubr
          69 hlineto
          27 9 13 10 19 hhcurveto
          359 45 -99 callsubr
          endchar
        </CharString>
        <CharString name="uni1EE1">
          -72 276 638 rmoveto
          -103 callsubr
          69 hlineto
          27 9 13 10 19 hhcurveto
          264 48 -98 callgsubr
          endchar
        </CharString>
        <CharString name="uni1EE2">
          95 739 828 -99 callsubr
          -341 -501 -92 callsubr
          endchar
        </CharString>
        <CharString name="uni1EE3">
          -72 540 686 -98 callgsubr
          -264 -432 -92 callsubr
          endchar
        </CharString>
        <CharString name="uni1EE4">
          39 324 -12 -104 callsubr
          -107 -161 -92 callsubr
          endchar
        </CharString>
        <CharString name="uni1EE5">
          -72 187 -12 -105 callsubr
          -25 -161 -92 callsubr
          endchar
        </CharString>
        <CharString name="uni1EE6">
          39 414 736 rmoveto
          -100 callgsubr
          -28 callsubr
          hvcurveto
          -14 hlineto
          -100 -802 -104 callsubr
          endchar
        </CharString>
        <CharString name="uni1EE7">
          -72 317 591 rmoveto
          -100 callgsubr
          -28 callsubr
          hvcurveto
          -14 hlineto
          -140 -657 -105 callsubr
          endchar
        </CharString>
        <CharString name="uni1EE8">
          -86 callsubr
          -238 -3 -51 callsubr
          endchar
        </CharString>
        <CharString name="uni1EE9">
          -85 callgsubr
          -197 -3 -51 callsubr
          endchar
        </CharString>
        <CharString name="uni1EEA">
          -86 callsubr
          -374 -132 -37 callgsubr
          endchar
        </CharString>
        <CharString name="uni1EEB">
          -85 callgsubr
          -333 -132 -37 callgsubr
          endchar
        </CharString>
        <CharString name="uni1EEC">
          39 473 813 rmoveto
          -28 callsubr
          vhcurveto
          -14 hlineto
          -10 -54 rlineto
          -100 callgsubr
          hvcurveto
          250 55 -83 callgsubr
          endchar
        </CharString>
        <CharString name="uni1EED">
          -72 376 668 rmoveto
          -28 callsubr
          vhcurveto
          -14 hlineto
          -10 -54 rlineto
          -100 callgsubr
          hvcurveto
          209 55 -84 callsubr
          endchar
        </CharString>
        <CharString name="uni1EEE">
          -86 callsubr
          -479 -85 rmoveto
          -103 callsubr
          69 hlineto
          27 9 13 10 19 hhcurveto
          endchar
        </CharString>
        <CharString name="uni1EEF">
          -85 callgsubr
          -438 -85 rmoveto
          -103 callsubr
          69 hlineto
          27 9 13 10 19 hhcurveto
          endchar
        </CharString>
        <CharString name="uni1EF0">
          -86 callsubr
          -654 -1041 -92 callsubr
          endchar
        </CharString>
        <CharString name="uni1EF1">
          -85 callgsubr
          -571 -896 -92 callsubr
          endchar
        </CharString>
        <CharString name="uni1EF4">
          -16 203 hmoveto
          -81 callgsubr
          -74 -450 -92 callsubr
          endchar
        </CharString>
        <CharString name="uni1EF5">
          64 -182 -95 callsubr
          240 9 -92 callsubr
          endchar
        </CharString>
        <CharString name="uni1EF6">
          -16 387 736 rmoveto
          -100 callgsubr
          -28 callsubr
          hvcurveto
          -14 hlineto
          -194 -790 rmoveto
          -81 callgsubr
          endchar
        </CharString>
        <CharString name="uni1EF7">
          290 591 rmoveto
          -100 callgsubr
          -28 callsubr
          hvcurveto
          -14 hlineto
          -236 -827 -95 callsubr
          endchar
        </CharString>
        <CharString name="uni1EF8">
          -16 255 746 rmoveto
          69 hlineto
          27 9 13 10 19 -103 callsubr
          -52 -746 rmoveto
          -81 callgsubr
          endchar
        </CharString>
        <CharString name="uni1EF8.loclGUA">
          -16 255 746 rmoveto
          69 hlineto
          27 9 13 10 19 -103 callsubr
          25 -758 -98 callsubr
        </CharString>
        <CharString name="uni1EF9">
          158 601 rmoveto
          69 hlineto
          27 9 13 10 19 -103 callsubr
          -94 -783 -95 callsubr
          endchar
        </CharString>
        <CharString name="uni1EF9.loclGUA">
          -72 198 601 rmoveto
          69 hlineto
          27 9 13 10 19 -103 callsubr
          23 -783 -96 callsubr
        </CharString>
        <CharString name="uni2015">
          1 callsubr
        </CharString>
        <CharString name="uni203E">
          -350 58 790 rmoveto
          363 hlineto
          17 98 rlineto
          -363 hlineto
          endchar
        </CharString>
        <CharString name="uni207F">
          -287 66 414 rmoveto
          82 hlineto
          30 165 rlineto
          56 10 33 29 42 hhcurveto
          25 15 -10 -29 -9 -2 -9 -1 -10 hvcurveto
          -33 -183 rlineto
          82 hlineto
          34 188 rlineto
          4 19 2 16 16 vvcurveto
          61 -42 23 -48 -43 -39 -23 -27 -22 vhcurveto
          -4 43 -69 hlineto
          endchar
        </CharString>
        <CharString name="uni20B2">
          -93 547 422 rmoveto
          2 12 1 12 11 vvcurveto
          104 -92 52 -110 5 vhcurveto
          19 105 rlineto
          -51 hlineto
          -19 -107 -134 -12 -97 -86 -29 -168 rlinecurve
          -3 -22 -2 -21 -20 vvcurveto
          -132 75 -70 94 -14 vhcurveto
          -21 -120 rlineto
          51 hlineto
          21 117 47 2 44 14 37 32 rlinecurve
          5 -46 rlineto
          100 hlineto
          53 303 rlineto
          -196 hlineto
          -21 -119 rlineto
          51 hlineto
          -6 -36 -44 -24 -49 -3 54 304 rcurveline
          51 -1 27 -25 -35 vvcurveto
          -4 0 -4 -1 -4 vhcurveto
          -234 -139 rmoveto
          13 1 15 3 17 vhcurveto
          5 30 11 67 35 45 49 17 rlinecurve
          -51 -291 rlineto
          -36 12 -17 28 47 vvcurveto
          endchar
        </CharString>
        <CharString name="uni2105">
          202 228 322 rmoveto
          91 59 47 97 15 hvcurveto
          -90 hlineto
          -44 -7 -26 -25 -43 hhcurveto
          -45 -19 24 44 12 1 13 5 25 hvcurveto
          69 13 28 39 52 hhcurveto
          35 19 -18 -33 -5 0 -7 -1 -6 hvcurveto
          94 hlineto
          2 12 1 11 10 vvcurveto
          74 -60 37 -92 -116 -57 -83 -99 -16 vhcurveto
          -3 -19 -1 -19 -20 vvcurveto
          -93 54 -43 107 vhcurveto
          -157 -334 rmoveto
          92 hlineto
          637 710 rlineto
          -92 hlineto
          -83 -710 rmoveto
          150 51 119 116 96 -59 44 -117 -150 -50 -120 -116 -95 58 -44 117 hvcurveto
          -7 76 rmoveto
          -50 -21 24 45 11 1 13 4 24 hvcurveto
          69 13 30 37 62 hhcurveto
          50 21 -24 -45 -11 -1 -12 -4 -25 hvcurveto
          -69 -12 -30 -37 -63 hhcurveto
          endchar
        </CharString>
        <CharString name="uni2113">
          -194 226 -12 rmoveto
          44 35 9 17 37 hvcurveto
          18 103 rlineto
          -18 -31 -34 -12 -39 hhcurveto
          -35 -26 20 52 12 1 12 3 15 hvcurveto
          13 74 rlineto
          151 124 98 124 103 vvcurveto
          73 -48 39 -83 -82 -85 -56 -171 -30 vhcurveto
          -43 -245 -22 -16 -20 -14 -18 -12 rlinecurve
          -16 -89 20 12 19 13 21 13 rlinecurve
          -3 -15 -1 -15 -14 vvcurveto
          -80 45 -58 111 vhcurveto
          5 393 rmoveto
          22 127 rlineto
          107 18 39 36 29 hhcurveto
          22 10 -15 -27 -69 -61 -83 -79 -76 hvcurveto
          endchar
        </CharString>
        <CharString name="uni2116">
          432 892 304 rmoveto
          52 48 13 33 35 hvcurveto
          43 42 24 72 100 vvcurveto
          92 -51 42 -102 -48 -47 -11 -29 -34 vhcurveto
          -48 -41 -26 -74 -105 vvcurveto
          -92 51 -42 103 vhcurveto
          -883 -304 rmoveto
          -25 callsubr
          3 16 3 29 2 15 rlinecurve
          5 hlineto
          8 -20 12 -27 8 -16 196 -391 rcurveline
          141 hlineto
          121 686 -32 callsubr
          -69 -394 -8 -58 rlineto
          -5 hlineto
          -11 28 -11 26 -6 10 -196 388 rcurveline
          -14 callgsubr
          766 -302 rmoveto
          -40 -17 24 45 13 1 14 5 26 hvcurveto
          72 13 28 40 51 hhcurveto
          39 17 -23 -43 -14 -2 -15 -5 -27 hvcurveto
          -72 -13 -26 -40 -51 hhcurveto
          -193 -210 rmoveto
          313 hlineto
          15 89 rlineto
          -313 hlineto
          endchar
        </CharString>
        <CharString name="uni2126">
          -55 callgsubr
        </CharString>
        <CharString name="uni2153">
          151 49 -12 -41 callsubr
          -672 -368 -48 callgsubr
          554 -417 -57 callgsubr
          6 18 13 -71 callgsubr
          endchar
        </CharString>
        <CharString name="uni2154">
          151 35 329 -51 callgsubr
          14 -366 -41 callsubr
          -109 -710 -57 callgsubr
          6 18 13 -71 callgsubr
          endchar
        </CharString>
        <CharString name="uni2206">
          -71 -41 hmoveto
          585 hlineto
          -157 698 rlineto
          -310 -634 rmoveto
          255 417 94 -417 rlineto
          endchar
        </CharString>
        <CharString name="uni2215">
          1 callgsubr
        </CharString>
        <CharString name="uni2219">
          -333 168 187 rmoveto
          37 31 30 38 37 -31 31 -37 -38 -30 -31 -37 -38 30 -30 38 hvcurveto
          endchar
        </CharString>
        <CharString name="uniA78B">
          -460 33 207 rmoveto
          91 hlineto
          106 359 21 120 rlineto
          -134 hlineto
          endchar
        </CharString>
        <CharString name="uniA78C">
          -485 45 287 rmoveto
          86 hlineto
          101 326 19 110 rlineto
          -129 hlineto
          endchar
        </CharString>
        <CharString name="uogonek">
          -72 378 -12 callsubr
          -27 -13 15 19 35 42 26 42 18 hvcurveto
          93 526 rlineto
          -137 -78 callgsubr
          hlineto
          -42 -25 -39 -33 -47 -11 callsubr
          vhcurveto
          endchar
        </CharString>
        <CharString name="uring">
          -72 347 556 -56 callgsubr
          -165 -625 -105 callsubr
          endchar
        </CharString>
        <CharString name="utilde">
          -72 185 601 rmoveto
          69 hlineto
          27 9 13 10 19 -103 callsubr
          2 -613 -105 callsubr
          endchar
        </CharString>
        <CharString name="v">
          150 hmoveto
          -20 callsubr
          290 526 -64 callgsubr
          -121 -226 rlineto
          -25 -47 -42 -111 0 vvcurveto
          -5 hlineto
          0 -13 117 -8 41 vhcurveto
          -42 226 -68 callsubr
          endchar
        </CharString>
        <CharString name="w">
          95 107 hmoveto
          -86 callgsubr
        </CharString>
        <CharString name="wacute">
          95 383 591 -95 callgsubr
          -378 -723 rmoveto
          -86 callgsubr
        </CharString>
        <CharString name="wcircumflex">
          95 265 -73 callsubr
          -286 -723 rmoveto
          -86 callgsubr
        </CharString>
        <CharString name="wdieresis">
          95 278 -66 callsubr
          -401 -723 rmoveto
          -86 callgsubr
        </CharString>
        <CharString name="wgrave">
          95 388 591 -81 callsubr
          -196 -720 rmoveto
          -86 callgsubr
        </CharString>
        <CharString name="x">
          -53 hmoveto
          158 hlineto
          143 -10 callsubr
          6 hlineto
          83 -166 rlineto
          152 hlineto
          -146 268 229 258 rlineto
          -157 hlineto
          -128 -152 rlineto
          -6 hlineto
          -76 152 rlineto
          -151 hlineto
          136 -252 rlineto
          endchar
        </CharString>
        <CharString name="y">
          64 -182 -95 callsubr
          endchar
        </CharString>
        <CharString name="y.loclGUA">
          -72 221 -182 -96 callsubr
        </CharString>
        <CharString name="yacute">
          268 591 -95 callgsubr
          -306 -905 -95 callsubr
          endchar
        </CharString>
        <CharString name="yacute.loclGUA">
          -72 308 591 -95 callgsubr
          -189 -905 -96 callsubr
        </CharString>
        <CharString name="ycircumflex">
          150 -73 callsubr
          -214 -905 -95 callsubr
          endchar
        </CharString>
        <CharString name="ycircumflex.loclGUA">
          -72 190 -73 callsubr
          -97 -905 -96 callsubr
        </CharString>
        <CharString name="ydieresis">
          163 -66 callsubr
          -329 -905 -95 callsubr
          endchar
        </CharString>
        <CharString name="ydieresis.loclGUA">
          -72 203 -66 callsubr
          -212 -905 -96 callsubr
        </CharString>
        <CharString name="yen">
          150 hmoveto
          -39 callgsubr
          25 142 rlineto
          189 hlineto
          14 81 rlineto
          -189 hlineto
          13 70 rlineto
          189 hlineto
          14 81 rlineto
          -156 hlineto
          53 72 178 240 rlineto
          -149 hlineto
          -129 -188 -45 -66 rlineto
          -5 hlineto
          -22 67 -60 187 rlineto
          -147 hlineto
          89 -227 33 -85 rlineto
          -155 hlineto
          -14 -81 rlineto
          189 hlineto
          -13 -70 rlineto
          -189 hlineto
          -13 -81 rlineto
          188 hlineto
          endchar
        </CharString>
        <CharString name="ygrave">
          273 591 -81 callsubr
          -124 -902 -95 callsubr
          endchar
        </CharString>
        <CharString name="ygrave.loclGUA">
          -72 313 591 -81 callsubr
          -7 -902 -96 callsubr
        </CharString>
        <CharString name="z">
          -183 -25 hmoveto
          -82 callsubr
          endchar
        </CharString>
        <CharString name="zacute">
          -183 252 591 -95 callgsubr
          -379 -723 rmoveto
          -82 callsubr
          endchar
        </CharString>
        <CharString name="zacute.loclPLK">
          -183 243 591 -54 callsubr
          -317 -723 rmoveto
          -82 callsubr
          endchar
        </CharString>
        <CharString name="zcaron">
          -183 246 588 -93 callsubr
          -189 -723 rmoveto
          -82 callsubr
          endchar
        </CharString>
        <CharString name="zdotaccent">
          -183 240 -35 callsubr
          -288 -724 rmoveto
          -82 callsubr
          endchar
        </CharString>
        <CharString name="zero">
          236 -12 rmoveto
          137 96 76 279 46 hvcurveto
          10 57 5 49 41 vvcurveto
          160 -80 48 -129 -138 -95 -76 -279 -45 vhcurveto
          -10 -58 -5 -49 -42 vvcurveto
          -158 79 -48 129 vhcurveto
          112 vmoveto
          -53 -20 28 61 31 5 39 22 119 hvcurveto
          143 26 24 65 81 hhcurveto
          53 19 -29 -60 -31 -4 -40 -22 -118 hvcurveto
          -143 -27 -23 -65 -81 hhcurveto
          endchar
        </CharString>
      <CharString index="0">
        rmoveto
        -53 callgsubr
        vhcurveto
        -10 callgsubr
        -31 -61 rlineto
        -6 hlineto
        47 -31 -45 26 -73 hhcurveto
        -169 -66 -202 -140 -137 69 -71 103 61 57 29 52 38 hvcurveto
        6 hlineto
        -49 5 35 -32 52 hhcurveto
        39 28 9 7 15 -31 callsubr
        -29 hlineto
        -15 -14 8 19 hvcurveto
        -242 -20 -94 callsubr
        return
      </CharString>
      <CharString index="1">
        rmoveto
        221 144 139 217 29 hvcurveto
        -4 callsubr
        182 -117 87 -198 -219 -140 -136 -216 -33 vhcurveto
        -4 -29 -2 -30 -30 -65 callsubr
        vhcurveto
        -2 123 rmoveto
        -108 -54 57 100 18 2 20 9 52 hvcurveto
        136 23 83 81 133 hhcurveto
        110 54 -58 -99 -19 -2 -20 -9 -51 hvcurveto
        -136 -23 -83 -81 -135 hhcurveto
        return
      </CharString>
      <CharString index="2">
        155 hlineto
        72 131 rlineto
        315 hlineto
        27 -131 rlineto
        148 hlineto
        -147 -22 callsubr
        -182 hlineto
        -93 -434 rmoveto
        94 174 rlineto
        19 34 50 101 0 vvcurveto
        5 hlineto
        0 14 -101 7 -34 vhcurveto
        34 -174 rlineto
        return
      </CharString>
      <CharString index="3">
        -107 callgsubr
        endchar
      </CharString>
      <CharString index="4">
        rmoveto
        46 37 12 21 28 hvcurveto
        36 27 20 41 7 36 rrcurveto
        -90 hlineto
        -21 -7 -27 -27 -47 hhcurveto
        -48 -14 25 23 hvcurveto
        -90 hlineto
        -2 -8 0 -9 -8 vvcurveto
        -58 38 -54 113 vhcurveto
        return
      </CharString>
      <CharString index="5">
        -52 callgsubr
        62 69 45 -69 rlineto
        106 hlineto
        -82 135 rlineto
        -122 hlineto
        return
      </CharString>
      <CharString index="6">
        rmoveto
        166 82 81 164 29 hvcurveto
        82 463 rlineto
        -117 hlineto
        -21 -69 rlineto
        -7 hlineto
        54 -27 -56 27 -72 hhcurveto
        -178 -75 -179 -143 -138 83 -60 99 70 46 27 46 36 hvcurveto
        6 hlineto
        -6 -32 rlineto
        -87 -16 -45 -42 -74 hhcurveto
        -54 -30 12 33 -5 hvcurveto
        -133 -10 hlineto
        -98 2 88 -49 127 hhcurveto
        37 319 rmoveto
        -63 -26 30 57 74 26 121 120 59 32 -30 -60 -77 -35 -115 3 callgsubr
      </CharString>
      <CharString index="7">
        68 hlineto
        5 25 rlineto
        48 3 48 18 46 vvcurveto
        42 -62 10 -45 -25 -35 -3 -5 -25 vhcurveto
        -8 -44 rlineto
        58 hlineto
        21 11 -3 -12 return
      </CharString>
      <CharString index="8">
        126 96 61 137 21 hvcurveto
        -27 callsubr
        -11 -38 -31 -63 hhcurveto
        -68 -27 31 60 14 1 15 3 17 hvcurveto
        346 hlineto
        6 32 rlineto
        return
      </CharString>
      <CharString index="9">
        rmoveto
        -25 -137 rlineto
        59 hlineto
        -19 -31 -29 -21 -42 -12 rrcurveto
        34 -43 -56 19 -65 hhcurveto
        -172 -91 -92 -152 -26 hvcurveto
        -5 -27 -2 -29 -31 vvcurveto
        3 -129 100 -91 138 1 rrcurveto
        173 92 92 152 26 hvcurveto
        5 27 2 29 31 vvcurveto
        -1 42 -11 39 -20 32 82 33 46 61 19 106 10 54 rcurveline
        -262 -427 rmoveto
        -13 -108 -49 -52 -88 1 -74 -1 -44 42 -1 68 rrcurveto
        20 1 18 3 20 vhcurveto
        13 108 49 52 88 -1 74 1 44 -42 1 -68 rrcurveto
        -20 -1 -18 -3 -20 vhcurveto
        return
      </CharString>
      <CharString index="10">
        rmoveto
        144 150 62 175 hvcurveto
        212 -368 -44 109 vvcurveto
        45 52 28 90 72 43 -26 -43 -4 0 -5 -3 -13 vhcurveto
        144 hlineto
        4 25 1 13 12 vvcurveto
        114 -115 50 -152 -157 -128 -71 -147 vhcurveto
        -213 365 53 -125 vvcurveto
        -47 -40 -37 -113 -86 -47 31 49 10 4 15 1 7 vhcurveto
        -147 hlineto
        -4 -15 -4 -23 -18 vvcurveto
        -119 129 -60 165 vhcurveto
        return
      </CharString>
      <CharString index="11">
        rmoveto
        117 hlineto
        21 118 rlineto
        -33 callsubr
        189 -118 -52 callgsubr
        21 118 rlineto
        -119 hlineto
        return
      </CharString>
      <CharString index="12">
        rmoveto
        110 hlineto
        131 129 -18 callgsubr
        return
      </CharString>
      <CharString index="13">
        rmoveto
        131 123 47 145 hvcurveto
        174 -292 -52 82 vvcurveto
        31 40 17 57 49 32 -16 -34 vhcurveto
        -1 -10 rlineto
        133 hlineto
        0 7 21 23 vvcurveto
        77 -91 45 -125 -134 -108 -60 -121 vhcurveto
        -169 291 49 -89 vvcurveto
        -43 -60 -11 -48 -48 -48 14 44 3 1 7 2 5 vhcurveto
        -133 hlineto
        0 -7 -16 -23 vvcurveto
        -85 82 -55 147 vhcurveto
        return
      </CharString>
      <CharString index="14">
        rlineto
        94 17 56 49 69 hhcurveto
        42 25 -18 -47 -15 -3 -15 -3 -18 hvcurveto
        -54 -304 rlineto
        -39 callgsubr
        56 313 rlineto
        6 32 4 27 26 vvcurveto
        102 -70 38 -80 return
      </CharString>
      <CharString index="15">
        rlineto
        3 18 5 42 0 vvcurveto
        5 hlineto
        0 14 -35 14 -28 vhcurveto
        196 -391 rlineto
        141 hlineto
        121 686 -80 callgsubr
        return
      </CharString>
      <CharString index="16">
        -25 callsubr
        -92 callgsubr
        return
      </CharString>
      <CharString index="17">
        -90 callsubr
        endchar
      </CharString>
      <CharString index="18">
        -88 callgsubr
        endchar
      </CharString>
      <CharString index="19">
        -103 callgsubr
        -487 -74 callgsubr
        return
      </CharString>
      <CharString index="20">
        163 hlineto
        188 437 rlineto
        12 29 19 68 0 vvcurveto
        4 hlineto
        0 1 -62 2 -35 vhcurveto
        30 -437 rlineto
        163 hlineto
        303 -22 callsubr
        -147 hlineto
        -176 -422 rlineto
        -14 -34 -16 -62 0 vvcurveto
        -5 hlineto
        0 0 69 -2 27 vhcurveto
        -26 422 rlineto
        -175 hlineto
        -175 -422 rlineto
        -12 -29 -18 -67 0 vvcurveto
        -5 hlineto
        0 0 66 -2 30 vhcurveto
        -29 422 rlineto
        -136 hlineto
        endchar
      </CharString>
      <CharString index="21">
        142 hlineto
        108 252 rlineto
        22 51 19 64 0 vvcurveto
        5 hlineto
        0 0 -66 3 -50 vhcurveto
        16 -251 rlineto
        142 hlineto
        249 526 rlineto
        -136 hlineto
        -93 -218 rlineto
        -24 -56 -32 -93 0 vvcurveto
        -4 hlineto
        0 -5 101 -4 48 vhcurveto
        -18 218 -32 callsubr
        -92 -217 rlineto
        -19 -45 -38 -105 0 vvcurveto
        -4 hlineto
        0 -3 114 -3 37 vhcurveto
        -19 216 3 callsubr
      </CharString>
      <CharString index="22">
        -72 585 723 -84 callsubr
        return
      </CharString>
      <CharString index="23">
        -75 callgsubr
        endchar
      </CharString>
      <CharString index="24">
        rmoveto
        -25 -137 rlineto
        59 hlineto
        -11 -19 -15 -14 -20 -12 rrcurveto
        -134 hlineto
        -75 -424 rlineto
        -100 -18 -64 -51 -94 hhcurveto
        -86 -40 38 74 12 3 21 1 6 hvcurveto
        75 424 -64 callgsubr
        -74 -423 rlineto
        -4 -22 -2 -22 -19 vvcurveto
        -141 98 -71 172 184 107 90 177 31 vhcurveto
        63 357 85 32 48 62 19 108 rlinecurve
        10 54 rlineto
        return
      </CharString>
      <CharString index="25">
        rmoveto
        99 41 71 70 12 hvcurveto
        100 567 -68 callsubr
        -98 -553 -69 callgsubr
      </CharString>
      <CharString index="26">
        -20 callsubr
        49 277 332 409 rlineto
        -159 hlineto
        -225 -280 rlineto
        -5 hlineto
        -129 280 rlineto
        -149 hlineto
        190 -409 rlineto
        return
      </CharString>
      <CharString index="27">
        -32 callsubr
        -69 -394 rlineto
        -2 -11 -6 -47 0 vvcurveto
        -5 hlineto
        0 -19 46 -9 18 vhcurveto
        -196 388 -32 callsubr
        return
      </CharString>
      <CharString index="28">
        rmoveto
        94 47 56 64 31 -12 26 -29 16 hvcurveto
        40 21 22 32 38 vvcurveto
        51 -37 39 -79 -82 -50 -54 -60 -26 11 -25 22 -16 vhcurveto
        -49 -20 -22 -36 -44 vvcurveto
        -53 35 -40 89 vhcurveto
        29 224 rmoveto
        -22 -10 10 19 34 18 19 29 22 12 -11 -21 -32 -22 -18 -27 hvcurveto
        -27 -156 rmoveto
        -27 -13 12 22 35 22 20 34 26 14 -12 -22 -35 -24 -20 -32 hvcurveto
        endchar
      </CharString>
      <CharString index="29">
        hlineto
        -49 -274 rlineto
        -94 -17 -56 -49 -69 hhcurveto
        -42 -25 18 47 15 3 15 3 18 hvcurveto
        54 304 -68 callsubr
        -56 -313 rlineto
        -6 -32 -5 -27 -26 vvcurveto
        -102 71 -38 80 -45 callgsubr
        vhcurveto
        7 -71 return
      </CharString>
      <CharString index="30">
        -77 callsubr
        endchar
      </CharString>
      <CharString index="31">
        304 hlineto
        113 90 39 65 63 hvcurveto
        75 78 37 114 120 vvcurveto
        184 -106 86 -181 vhcurveto
        -274 hlineto
        46 -563 rmoveto
        77 440 rlineto
        139 hlineto
        99 50 -54 -92 -21 -3 -22 -8 -46 hvcurveto
        -128 -22 -80 -77 -123 hhcurveto
        return
      </CharString>
      <CharString index="32">
        -68 callgsubr
        -71 -65 -38 -45 -37 vhcurveto
        -15 callgsubr
        return
      </CharString>
      <CharString index="33">
        -731 rmoveto
        -105 callgsubr
        return
      </CharString>
      <CharString index="34">
        rmoveto
        26 36 8 8 21 -31 callsubr
        -48 hlineto
        -24 -13 11 18 8 4 22 2 11 hvcurveto
        43 244 rlineto
        91 -28 callgsubr
        -91 hlineto
        33 148 rlineto
        -144 hlineto
        -26 -148 rlineto
        -63 hlineto
        -20 -112 rlineto
        63 hlineto
        -40 -229 -4 callgsubr
        -56 29 -49 97 vhcurveto
        return
      </CharString>
      <CharString index="35">
        -39 callgsubr
        45 254 rlineto
        96 17 45 51 91 hhcurveto
        38 hlineto
        22 128 rlineto
        0 -22 9 -34 -65 -33 -44 -53 -28 vhcurveto
        -7 85 -113 hlineto
        return
      </CharString>
      <CharString index="36">
        23 hhcurveto
        20 13 -9 -20 -36 -31 -16 -29 hvcurveto
        -24 hlineto
        -12 -69 rlineto
        32 hlineto
        24 19 -7 -27 -37 -24 -16 -29 -26 -15 11 21 3 0 3 2 11 hvcurveto
        -83 hlineto
        -3 -15 0 -8 -7 vvcurveto
        -54 42 -33 82 vhcurveto
        return
      </CharString>
      <CharString index="37">
        hlineto
        22 123 rlineto
        return
      </CharString>
      <CharString index="38">
        rlineto
        -28 -5 -17 -15 -28 hhcurveto
        -52 hlineto
        -16 -96 rlineto
        -8 22 45 -8 5 callgsubr
      </CharString>
      <CharString index="39">
        -39 callgsubr
        49 274 -93 callgsubr
        return
      </CharString>
      <CharString index="40">
        731 -103 callgsubr
        return
      </CharString>
      <CharString index="41">
        -868 -97 callsubr
        return
      </CharString>
      <CharString index="42">
        750 -96 callgsubr
        return
      </CharString>
      <CharString index="43">
        rlineto
        -44 callgsubr
        return
      </CharString>
      <CharString index="44">
        rmoveto
        94 hlineto
        75 81 rlineto
        -30 51 68 -14 81 hhcurveto
        119 96 40 69 67 hvcurveto
        79 82 39 121 129 vvcurveto
        78 -22 60 -40 44 vhcurveto
        116 124 rlineto
        -94 hlineto
        -76 -81 rlineto
        29 -51 -68 15 -80 hhcurveto
        -105 -88 -31 -56 -64 hvcurveto
        -94 -82 -47 -131 -141 vvcurveto
        -78 21 -60 39 -44 vhcurveto
        104 -12 callgsubr
        -10 23 -5 27 31 vvcurveto
        18 2 20 9 52 vhcurveto
        136 24 85 81 137 hhcurveto
        39 32 -8 -16 25 hvcurveto
        -197 -440 rmoveto
        -40 -32 8 16 -24 hvcurveto
        338 364 rlineto
        11 -23 5 -27 -31 vvcurveto
        -19 -2 -20 -9 -51 vhcurveto
        -136 -24 -85 -81 -138 hhcurveto
        endchar
      </CharString>
      <CharString index="45">
        rmoveto
        305 hlineto
        15 88 rlineto
        -305 hlineto
        return
      </CharString>
      <CharString index="46">
        rmoveto
        -60 callsubr
        endchar
      </CharString>
      <CharString index="47">
        rmoveto
        72 hlineto
        96 168 22 125 -56 callsubr
        -25 -137 rlineto
        55 hlineto
        return
      </CharString>
      <CharString index="48">
        rmoveto
        108 -43 callsubr
        77 -132 rmoveto
        109 -43 callsubr
        return
      </CharString>
      <CharString index="49">
        -55 callsubr
        45 258 -68 callsubr
        return
      </CharString>
      <CharString index="50">
        rmoveto
        74 64 42 72 37 -18 25 -30 14 hvcurveto
        1 4 rlineto
        42 18 27 24 46 vvcurveto
        61 -46 30 -71 -65 -55 -40 -62 -10 vhcurveto
        -2 -12 rlineto
        83 hlineto
        1 4 rlineto
        29 return
      </CharString>
      <CharString index="51">
        rmoveto
        66 49 53 63 49 -31 37 -59 -68 -47 -55 -63 -48 32 -36 58 hvcurveto
        5 57 rmoveto
        -23 -14 14 20 30 22 24 30 23 15 -15 -21 -29 -26 -23 -27 hvcurveto
        return
      </CharString>
      <CharString index="52">
        119 -25 hmoveto
        331 hlineto
        20 111 rlineto
        -88 17 -44 55 83 vvcurveto
        16 2 16 8 50 vhcurveto
        152 26 85 75 138 hhcurveto
        103 53 -52 -105 -21 -3 -24 -9 -57 hvcurveto
        -18 -113 -72 -74 -110 -19 -19 -110 rcurveline
        332 -70 callgsubr
        -51 hlineto
        -21 -43 -11 -3 -40 hvcurveto
        107 61 77 110 152 vvcurveto
        169 -116 97 -200 -236 -157 -171 -218 -89 36 -66 56 -45 vhcurveto
        4 -39 -38 10 -20 hhcurveto
        -50 hlineto
        endchar
      </CharString>
      <CharString index="53">
        rmoveto
        -63 -27 34 63 75 22 144 125 59 32 -34 -67 -93 -35 -122 -113 hvcurveto
        return
      </CharString>
      <CharString index="54">
        5 3 15 67 379 return
      </CharString>
      <CharString index="55">
        rmoveto
        -36 callsubr
        return
      </CharString>
      <CharString index="56">
        rmoveto
        256 hlineto
        13 75 rlineto
        -150 hlineto
        41 32 142 53 112 vvcurveto
        39 -16 58 -97 -78 -63 -43 -87 vhcurveto
        80 hlineto
        3 18 rlineto
        31 5 20 12 28 hhcurveto
        26 9 -17 -16 -87 -194 -25 -21 -130 hvcurveto
        return
      </CharString>
      <CharString index="57">
        hlineto
        93 526 -68 callsubr
        return
      </CharString>
      <CharString index="58">
        -137 hlineto
        return
      </CharString>
      <CharString index="59">
        rmoveto
        239 hlineto
        13 75 rlineto
        -74 hlineto
        50 281 rlineto
        -43 hlineto
        -39 -20 -56 -18 -34 -3 -10 -55 rcurveline
        82 hlineto
        -33 -185 rlineto
        -82 hlineto
        return
      </CharString>
      <CharString index="60">
        -135 hlineto
        return
      </CharString>
      <CharString index="61">
        -66 callgsubr
        endchar
      </CharString>
      <CharString index="62">
        71 65 38 45 37 return
      </CharString>
      <CharString index="63">
        -145 hlineto
        return
      </CharString>
      <CharString index="64">
        54 368 -12 rmoveto
        196 159 159 196 196 -159 159 -196 -196 -159 -159 -196 -196 159 -159 196 hvcurveto
        62 vmoveto
        -161 -130 131 162 161 130 132 161 161 130 -132 -161 -162 -130 -131 -161 hvcurveto
        return
      </CharString>
      <CharString index="65">
        -1 3 rlineto
        return
      </CharString>
      <CharString index="66">
        81 56 41 139 23 hvcurveto
        4 25 2 21 19 vvcurveto
        88 -50 28 -82 -81 -57 -42 -139 -22 vhcurveto
        -4 -25 -3 -22 -19 vvcurveto
        -86 51 -28 82 vhcurveto
        return
      </CharString>
      <CharString index="67">
        -107 -38 -173 rmoveto
        -39 callgsubr
        29 165 rlineto
        -3 14 14 -1 14 hhcurveto
        -26 callgsubr
        endchar
      </CharString>
      <CharString index="68">
        137 hlineto
        return
      </CharString>
      <CharString index="69">
        -21 -7 16 26 14 1 17 7 34 hvcurveto
        55 11 11 37 33 hhcurveto
        21 7 -16 -26 -14 -2 -17 -6 -34 hvcurveto
        -55 -10 -12 -37 -33 hhcurveto
        return
      </CharString>
      <CharString index="70">
        rmoveto
        -34 callgsubr
        return
      </CharString>
      <CharString index="71">
        39 9 hmoveto
        -85 callsubr
        return
      </CharString>
      <CharString index="72">
        9 callsubr
        -138 hlineto
        return
      </CharString>
      <CharString index="73">
        -56 132 rlineto
        -128 hlineto
        -1 -3 85 -129 rlineto
        return
      </CharString>
      <CharString index="74" raw="1">
        92861d06 0b  
      </CharString>
      <CharString index="75">
        -72 176 hmoveto
        -27 callgsubr
        return
      </CharString>
      <CharString index="76">
        rmoveto
        83 hlineto
        13 70 rlineto
        40 hlineto
        12 69 rlineto
        -40 hlineto
        26 148 rlineto
        -44 hlineto
        -15 -31 -23 -42 -19 -27 -8 -48 rcurveline
        -82 hlineto
        34 37 77 103 40 89 rrcurveto
        -94 hlineto
        -41 -91 -43 -80 -52 -63 -11 -64 rcurveline
        160 hlineto
        endchar
      </CharString>
      <CharString index="77">
        -136 79 -63 return
      </CharString>
      <CharString index="78">
        -11 callgsubr
        -569 hlineto
        -22 -125 -7 callsubr
        return
      </CharString>
      <CharString index="79">
        hlineto
        20 112 rlineto
        return
      </CharString>
      <CharString index="80">
        -20 callsubr
        99 561 -29 callgsubr
        return
      </CharString>
      <CharString index="81">
        -45 callgsubr
        hvcurveto
        7 -71 115 hlineto
        -19 callgsubr
        return
      </CharString>
      <CharString index="82">
        39 9 hmoveto
        -23 callgsubr
        return
      </CharString>
      <CharString index="83">
        -12 callsubr
        -29 -11 17 21 33 25 33 20 17 hvcurveto
        4 -85 vlineto
        -33 -26 -39 -36 -55 -11 callsubr
        vhcurveto
        endchar
      </CharString>
      <CharString index="84">
        -20 callsubr
        51 289 rlineto
        298 2 callsubr
        -60 callsubr
        -48 -272 rlineto
        -298 hlineto
        48 272 -64 callgsubr
        return
      </CharString>
      <CharString index="85">
        5 callsubr
        -55 hlineto
        82 156 rlineto
        -72 hlineto
        -96 -168 rlineto
        return
      </CharString>
      <CharString index="86">
        rmoveto
        97 63 41 139 24 hvcurveto
        4 22 1 19 17 vvcurveto
        93 -58 30 -97 -96 -66 -42 -139 -22 vhcurveto
        -4 -22 -2 -20 -17 vvcurveto
        -92 59 -29 97 vhcurveto
        return
      </CharString>
      <CharString index="87">
        13 hmoveto
        137 -45 callsubr
        return
      </CharString>
      <CharString index="88">
        93 526 -68 callsubr
        -49 -274 rlineto
        -94 -17 -56 -49 -69 hhcurveto
        -42 -25 18 47 15 3 15 3 18 hvcurveto
        54 304 -68 callsubr
        return
      </CharString>
      <CharString index="89">
        -1 3 -56 callsubr
        return
      </CharString>
      <CharString index="90">
        0 callsubr
        -127 -8 callsubr
        return
      </CharString>
      <CharString index="91">
        rmoveto
        105 hlineto
        44 132 26 147 rlineto
        -149 hlineto
        -26 -147 rlineto
        return
      </CharString>
      <CharString index="92">
        -7 71 -115 hlineto
        return
      </CharString>
      <CharString index="93">
        -141 hlineto
        return
      </CharString>
      <CharString index="94">
        118 -34 callsubr
        return
      </CharString>
      <CharString index="95">
        112 rmoveto
        return
      </CharString>
      <CharString index="96">
        -7 callsubr
        22 125 rlineto
        return
      </CharString>
      <CharString index="97">
        -116 hlineto
        return
      </CharString>
      <CharString index="98">
        rmoveto
        508 197 23 127 -440 196 -20 -114 347 -142 -398 -142 rlineto
        return
      </CharString>
      <CharString index="99">
        rmoveto
        -59 -32 34 67 93 35 122 113 63 27 -34 -63 -75 -22 -144 -125 hvcurveto
        endchar
      </CharString>
      <CharString index="100">
        6 callsubr
        88 177 -42 callgsubr
        -130 hlineto
        return
      </CharString>
      <CharString index="101">
        6 callgsubr
        -29 -11 17 21 return
      </CharString>
      <CharString index="102">
        -71 115 return
      </CharString>
      <CharString index="103">
        rlineto
        -10 -58 -3 -20 -14 vvcurveto
        return
      </CharString>
      <CharString index="104">
        138 hlineto
        return
      </CharString>
      <CharString index="105">
        -17 49 183 rlineto
        -108 hlineto
        -15 -183 -202 17 -20 -113 208 18 return
      </CharString>
      <CharString index="106">
        rmoveto
        36 204 rlineto
        149 hlineto
        72 30 -31 -55 -79 -57 -39 -81 hvcurveto
        endchar
      </CharString>
      <CharString index="107">
        -350 27 211 rmoveto
        241 hlineto
        21 118 rlineto
        -241 hlineto
        endchar
      </CharString>
      <CharString index="108">
        -516 -238 -12 rmoveto
        96 hlineto
        546 710 rlineto
        -96 hlineto
        endchar
      </CharString>
      <CharString index="109">
        31 hvcurveto
        -144 hlineto
        return
      </CharString>
      <CharString index="110">
        -113 hvcurveto
        endchar
      </CharString>
      <CharString index="111">
        rmoveto
        163 return
      </CharString>
      <CharString index="112">
        34 hhcurveto
        endchar
      </CharString>
      <CharString index="113">
        10 55 rlineto
        -24 hlineto
        return
      </CharString>
      <CharString index="114">
        rmoveto
        109 return
      </CharString>
      <CharString index="115">
        rmoveto
        555 hlineto
        17 98 rlineto
        -556 hlineto
        endchar
      </CharString>
      <CharString index="116">
        hlineto
        41 196 rlineto
        -104 hlineto
        -41 -196 rlineto
        return
      </CharString>
      <CharString index="117">
        60 hlineto
        220 173 3 21 -166 return
      </CharString>
</ttFont>
